<svg xmlns="http://www.w3.org/2000/svg" xmlns:xlink="http://www.w3.org/1999/xlink" width="1024" zoomAndPan="magnify" viewBox="0 0 768 576" height="768" preserveAspectRatio="xMidYMid meet" version="1.0"><defs><clipPath id="806e20265d"><path d="M 345 14.582031 L 679 14.582031 L 679 452 L 345 452 Z M 345 14.582031 " clip-rule="nonzero"/></clipPath><clipPath id="4a98a7d885"><path d="M 683 67 L 697.910156 67 L 697.910156 105 L 683 105 Z M 683 67 " clip-rule="nonzero"/></clipPath><clipPath id="fc03b8d398"><path d="M 144 357 L 418 357 L 418 568.832031 L 144 568.832031 Z M 144 357 " clip-rule="nonzero"/></clipPath></defs><rect x="-76.8" width="921.6" fill="#ffffff" y="-57.6" height="691.2" fill-opacity="1"/><rect x="-76.8" width="921.6" fill="#ffffff" y="-57.6" height="691.2" fill-opacity="1"/><path fill="#000000" d="M 458.238281 554.835938 L 564.257812 554.835938 L 564.257812 483.636719 L 433.816406 483.636719 L 457.875 496.042969 C 458.101562 496.160156 458.238281 496.386719 458.238281 496.636719 Z M 564.929688 556.175781 L 457.570312 556.175781 C 457.199219 556.175781 456.90625 555.875 456.90625 555.507812 L 456.90625 497.042969 L 430.757812 483.558594 C 430.484375 483.417969 430.34375 483.109375 430.414062 482.808594 C 430.488281 482.507812 430.753906 482.300781 431.0625 482.300781 L 564.929688 482.300781 C 565.296875 482.300781 565.597656 482.597656 565.597656 482.964844 L 565.597656 555.507812 C 565.597656 555.875 565.296875 556.175781 564.929688 556.175781 " fill-opacity="1" fill-rule="nonzero"/><path fill="#fda4ff" d="M 525.1875 498.910156 C 519.933594 498.914062 515.414062 502.097656 513.4375 506.640625 C 511.464844 502.097656 506.953125 498.925781 501.699219 498.925781 C 494.621094 498.933594 488.878906 504.691406 488.871094 511.789062 C 488.871094 516.410156 490.601562 519.265625 494.363281 523.496094 L 513.410156 543.773438 L 532.484375 523.46875 C 536.25 519.230469 537.988281 516.371094 537.992188 511.75 C 537.996094 504.652344 532.265625 498.902344 525.1875 498.910156 " fill-opacity="1" fill-rule="nonzero"/><path fill="#ffffff" d="M 210.691406 345.277344 C 211.753906 356.761719 203.28125 366.921875 191.769531 367.976562 C 180.253906 369.027344 170.0625 360.574219 169 349.089844 C 167.9375 337.609375 176.410156 327.449219 187.921875 326.394531 C 199.433594 325.34375 209.628906 333.796875 210.691406 345.277344 Z M 193.945312 301.378906 L 177.414062 302.890625 L 178.363281 313.167969 C 174.664062 314.402344 171.25 316.210938 168.222656 318.488281 L 160.261719 311.882812 L 149.652344 324.609375 L 157.609375 331.214844 C 155.921875 334.601562 154.757812 338.277344 154.214844 342.128906 L 143.910156 343.070312 L 145.433594 359.558594 L 155.738281 358.617188 C 156.980469 362.304688 158.800781 365.710938 161.082031 368.734375 L 154.464844 376.667969 L 167.234375 387.257812 L 173.847656 379.320312 C 177.246094 381.007812 180.933594 382.171875 184.796875 382.714844 L 185.746094 392.992188 L 202.277344 391.480469 L 201.328125 381.203125 C 205.027344 379.96875 208.4375 378.160156 211.46875 375.882812 L 219.429688 382.484375 L 230.039062 369.761719 L 222.078125 363.15625 C 223.769531 359.769531 224.933594 356.09375 225.476562 352.242188 L 235.78125 351.300781 L 234.257812 334.8125 L 223.953125 335.753906 C 222.710938 332.066406 220.890625 328.660156 218.609375 325.636719 L 225.222656 317.703125 L 212.457031 307.113281 L 205.839844 315.050781 C 202.445312 313.363281 198.757812 312.199219 194.894531 311.652344 L 193.945312 301.378906 " fill-opacity="1" fill-rule="nonzero"/><path fill="#000000" d="M 189.847656 326.976562 C 189.230469 326.976562 188.609375 327.003906 187.980469 327.0625 C 182.578125 327.554688 177.695312 330.121094 174.234375 334.289062 C 170.792969 338.429688 169.167969 343.667969 169.664062 349.027344 C 170.691406 360.125 180.582031 368.324219 191.707031 367.308594 C 197.109375 366.816406 201.992188 364.25 205.453125 360.082031 C 208.898438 355.9375 210.523438 350.703125 210.023438 345.34375 C 209.054688 334.871094 200.195312 326.976562 189.847656 326.976562 Z M 189.839844 368.730469 C 178.8125 368.730469 169.367188 360.316406 168.335938 349.152344 C 167.804688 343.433594 169.539062 337.851562 173.207031 333.433594 C 176.898438 328.992188 182.101562 326.253906 187.859375 325.730469 C 199.71875 324.648438 210.261719 333.386719 211.355469 345.21875 C 211.882812 350.9375 210.152344 356.519531 206.480469 360.9375 C 202.792969 365.375 197.589844 368.117188 191.828125 368.640625 C 191.160156 368.699219 190.5 368.730469 189.839844 368.730469 Z M 173.847656 378.652344 C 173.949219 378.652344 174.050781 378.675781 174.144531 378.722656 C 177.539062 380.40625 181.152344 381.527344 184.890625 382.054688 C 185.195312 382.097656 185.433594 382.347656 185.460938 382.65625 L 186.351562 392.265625 L 201.550781 390.878906 L 200.664062 381.269531 C 200.632812 380.960938 200.820312 380.671875 201.117188 380.570312 C 204.695312 379.375 208.042969 377.617188 211.066406 375.347656 C 211.3125 375.164062 211.65625 375.171875 211.894531 375.367188 L 219.34375 381.546875 L 229.097656 369.847656 L 221.652344 363.671875 C 221.414062 363.472656 221.34375 363.136719 221.480469 362.859375 C 223.167969 359.476562 224.289062 355.871094 224.816406 352.148438 C 224.859375 351.84375 225.109375 351.601562 225.417969 351.574219 L 235.054688 350.695312 L 233.652344 335.539062 L 224.011719 336.417969 C 223.707031 336.445312 223.417969 336.261719 223.320312 335.96875 C 222.117188 332.398438 220.351562 329.058594 218.078125 326.039062 C 217.886719 325.792969 217.898438 325.449219 218.09375 325.210938 L 224.28125 317.789062 L 212.542969 308.054688 L 206.351562 315.476562 C 206.15625 315.714844 205.820312 315.785156 205.542969 315.648438 C 202.152344 313.960938 198.539062 312.84375 194.800781 312.3125 C 194.496094 312.273438 194.257812 312.023438 194.226562 311.714844 L 193.339844 302.105469 L 178.136719 303.492188 L 179.027344 313.101562 C 179.054688 313.410156 178.867188 313.699219 178.574219 313.800781 C 174.996094 314.996094 171.648438 316.753906 168.621094 319.023438 C 168.375 319.207031 168.035156 319.199219 167.796875 319.003906 L 160.347656 312.824219 L 150.59375 324.523438 L 158.039062 330.699219 C 158.277344 330.898438 158.347656 331.234375 158.207031 331.511719 C 156.523438 334.890625 155.402344 338.496094 154.875 342.222656 C 154.832031 342.527344 154.582031 342.765625 154.273438 342.796875 L 144.636719 343.675781 L 146.035156 358.832031 L 155.679688 357.949219 C 155.984375 357.925781 156.273438 358.109375 156.371094 358.402344 C 157.570312 361.96875 159.335938 365.308594 161.613281 368.328125 C 161.800781 368.574219 161.792969 368.921875 161.59375 369.160156 L 155.410156 376.582031 L 167.148438 386.316406 L 173.335938 378.894531 C 173.46875 378.738281 173.65625 378.652344 173.847656 378.652344 Z M 185.746094 393.660156 C 185.40625 393.660156 185.113281 393.402344 185.082031 393.054688 L 184.179688 383.300781 C 180.660156 382.753906 177.25 381.695312 174.027344 380.152344 L 167.746094 387.683594 C 167.511719 387.96875 167.089844 388.007812 166.808594 387.769531 L 154.039062 377.183594 C 153.902344 377.066406 153.816406 376.90625 153.800781 376.726562 C 153.785156 376.550781 153.839844 376.375 153.953125 376.238281 L 160.230469 368.707031 C 158.125 365.832031 156.460938 362.679688 155.277344 359.328125 L 145.496094 360.222656 C 145.117188 360.253906 144.804688 359.988281 144.769531 359.621094 L 143.242188 343.132812 C 143.226562 342.957031 143.28125 342.78125 143.394531 342.644531 C 143.507812 342.507812 143.671875 342.421875 143.847656 342.40625 L 153.628906 341.511719 C 154.179688 338 155.238281 334.601562 156.78125 331.394531 L 149.226562 325.125 C 149.085938 325.011719 149 324.851562 148.984375 324.671875 C 148.96875 324.496094 149.023438 324.320312 149.136719 324.183594 L 159.75 311.457031 C 159.984375 311.175781 160.402344 311.136719 160.6875 311.371094 L 168.246094 317.640625 C 171.128906 315.539062 174.289062 313.878906 177.648438 312.703125 L 176.746094 302.949219 C 176.730469 302.773438 176.785156 302.597656 176.898438 302.460938 C 177.011719 302.324219 177.175781 302.238281 177.351562 302.222656 L 193.882812 300.710938 C 194.25 300.683594 194.574219 300.949219 194.609375 301.3125 L 195.507812 311.070312 C 199.03125 311.617188 202.441406 312.675781 205.664062 314.21875 L 211.945312 306.6875 C 212.179688 306.402344 212.597656 306.363281 212.882812 306.601562 L 225.648438 317.1875 C 225.785156 317.304688 225.875 317.464844 225.890625 317.640625 C 225.90625 317.816406 225.851562 317.996094 225.734375 318.132812 L 219.457031 325.660156 C 221.566406 328.539062 223.230469 331.691406 224.410156 335.042969 L 234.195312 334.148438 C 234.5625 334.113281 234.886719 334.382812 234.921875 334.75 L 236.445312 351.238281 C 236.460938 351.414062 236.40625 351.589844 236.292969 351.726562 C 236.179688 351.863281 236.015625 351.949219 235.839844 351.964844 L 226.058594 352.859375 C 225.511719 356.367188 224.453125 359.769531 222.910156 362.976562 L 230.464844 369.246094 C 230.601562 369.355469 230.6875 369.519531 230.703125 369.699219 C 230.722656 369.875 230.667969 370.050781 230.550781 370.1875 L 219.941406 382.914062 C 219.707031 383.195312 219.285156 383.234375 219.003906 383 L 211.445312 376.730469 C 208.5625 378.835938 205.402344 380.492188 202.039062 381.667969 L 202.941406 391.421875 C 202.957031 391.597656 202.90625 391.773438 202.792969 391.910156 C 202.675781 392.042969 202.515625 392.132812 202.339844 392.148438 L 185.808594 393.660156 C 185.789062 393.660156 185.765625 393.660156 185.746094 393.660156 " fill-opacity="1" fill-rule="nonzero"/><path fill="#8c7bff" d="M 669.253906 15.25 L 653.824219 15.25 L 653.824219 451.203125 L 669.253906 451.203125 C 682.507812 451.203125 693.25 440.441406 693.25 427.171875 L 693.25 39.28125 C 693.25 26.007812 682.507812 15.25 669.253906 15.25 " fill-opacity="1" fill-rule="nonzero"/><path fill="#ffffff" d="M 368.933594 15.25 L 655.054688 15.25 C 667.792969 15.25 678.113281 25.582031 678.113281 38.332031 L 678.113281 428.121094 C 678.113281 440.871094 667.792969 451.203125 655.054688 451.203125 L 368.933594 451.203125 C 356.199219 451.203125 345.871094 440.871094 345.871094 428.121094 L 345.871094 38.332031 C 345.871094 25.582031 356.199219 15.25 368.933594 15.25 " fill-opacity="1" fill-rule="nonzero"/><g clip-path="url(#806e20265d)"><path fill="#000000" d="M 368.921875 15.917969 C 356.574219 15.917969 346.527344 25.976562 346.527344 38.332031 L 346.527344 428.121094 C 346.527344 440.480469 356.574219 450.535156 368.921875 450.535156 L 655.039062 450.535156 C 667.390625 450.535156 677.4375 440.480469 677.4375 428.121094 L 677.4375 38.332031 C 677.4375 25.976562 667.390625 15.917969 655.039062 15.917969 Z M 655.039062 451.871094 L 368.921875 451.871094 C 355.839844 451.871094 345.195312 441.21875 345.195312 428.121094 L 345.195312 38.332031 C 345.195312 25.234375 355.839844 14.582031 368.921875 14.582031 L 655.039062 14.582031 C 668.128906 14.582031 678.773438 25.234375 678.773438 38.332031 L 678.773438 428.121094 C 678.773438 441.21875 668.128906 451.871094 655.039062 451.871094 " fill-opacity="1" fill-rule="nonzero"/></g><g clip-path="url(#4a98a7d885)"><path fill="#000000" d="M 683.167969 67.378906 L 697.75 67.378906 L 697.75 104.636719 L 683.167969 104.636719 L 683.167969 67.378906 " fill-opacity="1" fill-rule="nonzero"/></g><path fill="#ffffff" d="M 683.167969 67.378906 L 690.164062 67.378906 L 690.164062 104.632812 L 683.167969 104.632812 L 683.167969 67.378906 " fill-opacity="1" fill-rule="nonzero"/><path fill="#000000" d="M 683.828125 103.96875 L 689.496094 103.96875 L 689.496094 68.050781 L 683.828125 68.050781 Z M 690.160156 105.300781 L 683.164062 105.300781 C 682.796875 105.300781 682.496094 105.003906 682.496094 104.636719 L 682.496094 67.378906 C 682.496094 67.015625 682.796875 66.714844 683.164062 66.714844 L 690.160156 66.714844 C 690.53125 66.714844 690.828125 67.015625 690.828125 67.378906 L 690.828125 104.636719 C 690.828125 105.003906 690.53125 105.300781 690.160156 105.300781 " fill-opacity="1" fill-rule="nonzero"/><path fill="#000000" d="M 369.445312 426.394531 L 655.238281 426.394531 L 655.238281 39.871094 L 369.445312 39.871094 Z M 655.90625 427.730469 L 368.777344 427.730469 C 368.410156 427.730469 368.113281 427.429688 368.113281 427.066406 L 368.113281 39.203125 C 368.113281 38.835938 368.410156 38.535156 368.777344 38.535156 L 655.90625 38.535156 C 656.277344 38.535156 656.570312 38.835938 656.570312 39.203125 L 656.570312 427.066406 C 656.570312 427.429688 656.277344 427.730469 655.90625 427.730469 " fill-opacity="1" fill-rule="nonzero"/><path fill="#ffffff" d="M 511.847656 27.070312 C 511.847656 30.035156 509.445312 32.441406 506.484375 32.441406 C 503.527344 32.441406 501.121094 30.035156 501.121094 27.070312 C 501.121094 24.105469 503.527344 21.703125 506.484375 21.703125 C 509.445312 21.703125 511.847656 24.105469 511.847656 27.070312 " fill-opacity="1" fill-rule="nonzero"/><path fill="#000000" d="M 506.484375 22.371094 C 503.898438 22.371094 501.789062 24.480469 501.789062 27.074219 C 501.789062 29.664062 503.898438 31.773438 506.484375 31.773438 C 509.074219 31.773438 511.175781 29.664062 511.175781 27.074219 C 511.175781 24.480469 509.074219 22.371094 506.484375 22.371094 Z M 506.484375 33.109375 C 503.160156 33.109375 500.453125 30.398438 500.453125 27.074219 C 500.453125 23.742188 503.160156 21.035156 506.484375 21.035156 C 509.808594 21.035156 512.511719 23.742188 512.511719 27.074219 C 512.511719 30.398438 509.808594 33.109375 506.484375 33.109375 " fill-opacity="1" fill-rule="nonzero"/><path fill="#ffffff" d="M 528.53125 27.070312 C 528.53125 29.171875 526.832031 30.871094 524.738281 30.871094 C 522.644531 30.871094 520.945312 29.171875 520.945312 27.070312 C 520.945312 24.976562 522.644531 23.277344 524.738281 23.277344 C 526.832031 23.277344 528.53125 24.976562 528.53125 27.070312 " fill-opacity="1" fill-rule="nonzero"/><path fill="#000000" d="M 524.738281 23.941406 C 523.015625 23.941406 521.617188 25.347656 521.617188 27.070312 C 521.617188 28.796875 523.015625 30.199219 524.738281 30.199219 C 526.460938 30.199219 527.863281 28.796875 527.863281 27.070312 C 527.863281 25.347656 526.460938 23.941406 524.738281 23.941406 Z M 524.738281 31.535156 C 522.28125 31.535156 520.28125 29.53125 520.28125 27.070312 C 520.28125 24.609375 522.28125 22.605469 524.738281 22.605469 C 527.195312 22.605469 529.199219 24.609375 529.199219 27.070312 C 529.199219 29.53125 527.195312 31.535156 524.738281 31.535156 " fill-opacity="1" fill-rule="nonzero"/><path fill="#000000" d="M 408.402344 263.449219 L 621.914062 263.449219 L 621.914062 233.09375 L 408.402344 233.09375 Z M 622.582031 264.785156 L 407.734375 264.785156 C 407.367188 264.785156 407.070312 264.484375 407.070312 264.113281 L 407.070312 232.425781 C 407.070312 232.054688 407.367188 231.757812 407.734375 231.757812 L 622.582031 231.757812 C 622.953125 231.757812 623.25 232.054688 623.25 232.425781 L 623.25 264.113281 C 623.25 264.484375 622.953125 264.785156 622.582031 264.785156 " fill-opacity="1" fill-rule="nonzero"/><path fill="#000000" d="M 434.253906 259.585938 L 419.78125 259.585938 C 418.683594 259.585938 417.792969 258.691406 417.792969 257.59375 L 417.792969 247.496094 C 417.792969 246.394531 418.683594 245.503906 419.78125 245.503906 L 434.253906 245.503906 C 435.351562 245.503906 436.242188 246.394531 436.242188 247.496094 L 436.242188 257.59375 C 436.242188 258.691406 435.351562 259.585938 434.253906 259.585938 " fill-opacity="1" fill-rule="nonzero"/><path fill="#ffffff" d="M 428.472656 250.960938 C 428.472656 250.257812 427.898438 249.683594 427.195312 249.683594 C 426.488281 249.683594 425.917969 250.257812 425.917969 250.960938 C 425.917969 251.398438 426.136719 251.78125 426.472656 252.015625 L 425.996094 255.800781 L 428.394531 255.800781 L 427.917969 252.015625 C 428.253906 251.78125 428.472656 251.398438 428.472656 250.960938 " fill-opacity="1" fill-rule="nonzero"/><path fill="#000000" d="M 432.890625 245.503906 L 431.390625 245.503906 L 431.390625 241.824219 C 431.390625 239.503906 429.507812 237.621094 427.195312 237.621094 C 424.878906 237.621094 422.996094 239.503906 422.996094 241.824219 L 422.996094 245.5 L 421.496094 245.507812 L 421.496094 241.824219 C 421.496094 238.679688 424.054688 236.117188 427.195312 236.117188 C 430.335938 236.117188 432.890625 238.679688 432.890625 241.824219 L 432.890625 245.503906 " fill-opacity="1" fill-rule="nonzero"/><path fill="#8c7bff" d="M 465.226562 248.273438 C 465.226562 251.132812 462.917969 253.453125 460.070312 253.453125 C 457.222656 253.453125 454.914062 251.132812 454.914062 248.273438 C 454.914062 245.410156 457.222656 243.089844 460.070312 243.089844 C 462.917969 243.089844 465.226562 245.410156 465.226562 248.273438 " fill-opacity="1" fill-rule="nonzero"/><path fill="#8c7bff" d="M 485.539062 248.273438 C 485.539062 251.132812 483.230469 253.453125 480.382812 253.453125 C 477.53125 253.453125 475.222656 251.132812 475.222656 248.273438 C 475.222656 245.410156 477.53125 243.089844 480.382812 243.089844 C 483.230469 243.089844 485.539062 245.410156 485.539062 248.273438 " fill-opacity="1" fill-rule="nonzero"/><path fill="#8c7bff" d="M 505.847656 248.273438 C 505.847656 251.132812 503.539062 253.453125 500.691406 253.453125 C 497.84375 253.453125 495.535156 251.132812 495.535156 248.273438 C 495.535156 245.410156 497.84375 243.089844 500.691406 243.089844 C 503.539062 243.089844 505.847656 245.410156 505.847656 248.273438 " fill-opacity="1" fill-rule="nonzero"/><path fill="#8c7bff" d="M 526.160156 248.273438 C 526.160156 251.132812 523.851562 253.453125 521.003906 253.453125 C 518.152344 253.453125 515.84375 251.132812 515.84375 248.273438 C 515.84375 245.410156 518.152344 243.089844 521.003906 243.089844 C 523.851562 243.089844 526.160156 245.410156 526.160156 248.273438 " fill-opacity="1" fill-rule="nonzero"/><path fill="#8c7bff" d="M 546.464844 248.273438 C 546.464844 251.136719 544.15625 253.453125 541.308594 253.453125 C 538.460938 253.453125 536.152344 251.136719 536.152344 248.273438 C 536.152344 245.410156 538.460938 243.09375 541.308594 243.09375 C 544.15625 243.09375 546.464844 245.410156 546.464844 248.273438 " fill-opacity="1" fill-rule="nonzero"/><path fill="#8c7bff" d="M 566.777344 248.273438 C 566.777344 251.132812 564.46875 253.457031 561.621094 253.457031 C 558.769531 253.457031 556.460938 251.132812 556.460938 248.273438 C 556.460938 245.410156 558.769531 243.09375 561.621094 243.09375 C 564.46875 243.09375 566.777344 245.410156 566.777344 248.273438 " fill-opacity="1" fill-rule="nonzero"/><path fill="#fed101" d="M 574.269531 326.582031 L 456.042969 326.582031 C 444.886719 326.582031 435.835938 317.527344 435.835938 306.351562 L 435.835938 306.34375 C 435.835938 295.175781 444.886719 286.121094 456.042969 286.121094 L 574.269531 286.121094 C 585.429688 286.121094 594.476562 295.175781 594.476562 306.34375 L 594.476562 306.351562 C 594.476562 317.527344 585.429688 326.582031 574.269531 326.582031 " fill-opacity="1" fill-rule="nonzero"/><path fill="#ffffff" d="M 561.191406 316.015625 L 473.476562 316.015625 C 473.109375 316.015625 472.8125 315.714844 472.8125 315.34375 C 472.8125 314.976562 473.109375 314.679688 473.476562 314.679688 L 561.191406 314.679688 C 561.558594 314.679688 561.859375 314.976562 561.859375 315.34375 C 561.859375 315.714844 561.558594 316.015625 561.191406 316.015625 " fill-opacity="1" fill-rule="nonzero"/><path fill="#000000" d="M 408.402344 213.90625 L 621.914062 213.90625 L 621.914062 183.558594 L 408.402344 183.558594 Z M 622.582031 215.246094 L 407.734375 215.246094 C 407.367188 215.246094 407.070312 214.945312 407.070312 214.578125 L 407.070312 182.890625 C 407.070312 182.519531 407.367188 182.21875 407.734375 182.21875 L 622.582031 182.21875 C 622.953125 182.21875 623.25 182.519531 623.25 182.890625 L 623.25 214.578125 C 623.25 214.945312 622.953125 215.246094 622.582031 215.246094 " fill-opacity="1" fill-rule="nonzero"/><path fill="#000000" d="M 428.394531 201.882812 C 423 201.882812 418.730469 203.644531 416.1875 208.027344 C 424.773438 208.027344 430.335938 207.980469 440.753906 208.027344 C 438.832031 203.941406 433.78125 201.882812 428.394531 201.882812 " fill-opacity="1" fill-rule="nonzero"/><path fill="#000000" d="M 433.667969 194.722656 C 433.667969 197.640625 431.304688 200.003906 428.394531 200.003906 C 425.476562 200.003906 423.117188 197.640625 423.117188 194.722656 C 423.117188 191.804688 425.476562 189.441406 428.394531 189.441406 C 431.304688 189.441406 433.667969 191.804688 433.667969 194.722656 " fill-opacity="1" fill-rule="nonzero"/><path fill="#000000" d="M 430.75 202.570312 L 426.03125 202.570312 L 426.03125 198.175781 L 430.75 198.175781 L 430.75 202.570312 " fill-opacity="1" fill-rule="nonzero"/><path fill="#8c7bff" d="M 465.226562 198.734375 C 465.226562 201.59375 462.917969 203.914062 460.070312 203.914062 C 457.222656 203.914062 454.914062 201.59375 454.914062 198.734375 C 454.914062 195.871094 457.222656 193.554688 460.070312 193.554688 C 462.917969 193.554688 465.226562 195.871094 465.226562 198.734375 " fill-opacity="1" fill-rule="nonzero"/><path fill="#8c7bff" d="M 485.539062 198.734375 C 485.539062 201.59375 483.230469 203.914062 480.382812 203.914062 C 477.53125 203.914062 475.222656 201.59375 475.222656 198.734375 C 475.222656 195.871094 477.53125 193.554688 480.382812 193.554688 C 483.230469 193.554688 485.539062 195.871094 485.539062 198.734375 " fill-opacity="1" fill-rule="nonzero"/><path fill="#8c7bff" d="M 505.847656 198.734375 C 505.847656 201.59375 503.539062 203.914062 500.691406 203.914062 C 497.84375 203.914062 495.535156 201.59375 495.535156 198.734375 C 495.535156 195.871094 497.84375 193.554688 500.691406 193.554688 C 503.539062 193.554688 505.847656 195.871094 505.847656 198.734375 " fill-opacity="1" fill-rule="nonzero"/><path fill="#8c7bff" d="M 526.160156 198.734375 C 526.160156 201.59375 523.851562 203.914062 521.003906 203.914062 C 518.152344 203.914062 515.84375 201.59375 515.84375 198.734375 C 515.84375 195.871094 518.152344 193.554688 521.003906 193.554688 C 523.851562 193.554688 526.160156 195.871094 526.160156 198.734375 " fill-opacity="1" fill-rule="nonzero"/><path fill="#8c7bff" d="M 546.464844 198.734375 C 546.464844 201.597656 544.15625 203.917969 541.308594 203.917969 C 538.460938 203.917969 536.152344 201.597656 536.152344 198.734375 C 536.152344 195.875 538.460938 193.554688 541.308594 193.554688 C 544.15625 193.554688 546.464844 195.875 546.464844 198.734375 " fill-opacity="1" fill-rule="nonzero"/><path fill="#8c7bff" d="M 566.777344 198.734375 C 566.777344 201.59375 564.46875 203.917969 561.621094 203.917969 C 558.769531 203.917969 556.460938 201.59375 556.460938 198.734375 C 556.460938 195.871094 558.769531 193.554688 561.621094 193.554688 C 564.46875 193.554688 566.777344 195.871094 566.777344 198.734375 " fill-opacity="1" fill-rule="nonzero"/><path fill="#ffffff" d="M 559.269531 111.40625 C 559.269531 136.648438 538.828125 157.117188 513.617188 157.117188 C 488.398438 157.117188 467.957031 136.648438 467.957031 111.40625 C 467.957031 86.15625 488.398438 65.6875 513.617188 65.6875 C 538.828125 65.6875 559.269531 86.15625 559.269531 111.40625 " fill-opacity="1" fill-rule="nonzero"/><path fill="#000000" d="M 513.613281 66.359375 C 488.804688 66.359375 468.625 86.566406 468.625 111.40625 C 468.625 136.242188 488.804688 156.453125 513.613281 156.453125 C 538.417969 156.453125 558.601562 136.242188 558.601562 111.40625 C 558.601562 86.566406 538.417969 66.359375 513.613281 66.359375 Z M 513.613281 157.789062 C 488.074219 157.789062 467.292969 136.980469 467.292969 111.40625 C 467.292969 85.828125 488.074219 65.023438 513.613281 65.023438 C 539.15625 65.023438 559.9375 85.828125 559.9375 111.40625 C 559.9375 136.980469 539.15625 157.789062 513.613281 157.789062 " fill-opacity="1" fill-rule="nonzero"/><path fill="#8c7bff" d="M 513.617188 114.488281 C 500.527344 114.488281 488.5625 119.285156 479.375 127.222656 C 485.351562 140.171875 498.433594 149.15625 513.617188 149.15625 C 528.800781 149.15625 541.882812 140.171875 547.859375 127.222656 C 538.667969 119.285156 526.699219 114.488281 513.617188 114.488281 " fill-opacity="1" fill-rule="nonzero"/><path fill="#8c7bff" d="M 526.425781 95.160156 C 526.425781 102.238281 520.691406 107.976562 513.617188 107.976562 C 506.542969 107.976562 500.808594 102.238281 500.808594 95.160156 C 500.808594 88.078125 506.542969 82.335938 513.617188 82.335938 C 520.691406 82.335938 526.425781 88.078125 526.425781 95.160156 " fill-opacity="1" fill-rule="nonzero"/><path fill="#fda4ff" d="M 464.707031 335.308594 L 457.746094 328.257812 L 471.039062 313.28125 C 472.992188 311.078125 476.136719 310.871094 478.058594 312.816406 C 479.980469 314.765625 479.953125 318.128906 477.996094 320.335938 L 464.707031 335.308594 " fill-opacity="1" fill-rule="nonzero"/><path fill="#fda4ff" d="M 456.925781 333.277344 L 449.964844 326.222656 L 463.257812 311.25 C 465.214844 309.042969 468.359375 308.835938 470.28125 310.78125 C 472.203125 312.730469 472.175781 316.097656 470.21875 318.300781 L 456.925781 333.277344 " fill-opacity="1" fill-rule="nonzero"/><path fill="#fda4ff" d="M 477.144531 336.199219 L 467.257812 332.304688 L 483.640625 295.925781 C 484.695312 293.4375 487.5625 292.28125 490.046875 293.339844 C 492.53125 294.398438 493.6875 297.273438 492.628906 299.761719 L 477.144531 336.199219 " fill-opacity="1" fill-rule="nonzero"/><path fill="#fda4ff" d="M 464.320312 368.894531 L 448.328125 397.226562 L 422.089844 381.847656 L 435.179688 349.226562 C 436.703125 345.433594 439.019531 340.054688 441.445312 336.769531 L 451.4375 324.597656 L 477.144531 336.199219 L 464.320312 368.894531 " fill-opacity="1" fill-rule="nonzero"/><path fill="#fda4ff" d="M 464.320312 368.894531 L 462.769531 348.699219 L 494.179688 335.042969 C 496.703125 333.703125 499.621094 334.738281 500.695312 337.355469 C 501.769531 339.972656 500.59375 343.183594 498.070312 344.523438 L 484.367188 351.804688 L 464.320312 368.894531 " fill-opacity="1" fill-rule="nonzero"/><path fill="#000000" d="M 459.160156 327.277344 C 459 327.277344 458.84375 327.222656 458.714844 327.109375 C 458.441406 326.863281 458.417969 326.441406 458.660156 326.164062 L 470.539062 312.839844 C 471.78125 311.4375 473.738281 309.722656 476.34375 310.996094 C 476.675781 311.160156 476.8125 311.5625 476.652344 311.890625 C 476.488281 312.222656 476.089844 312.359375 475.757812 312.199219 C 474.355469 311.511719 473.09375 311.96875 471.539062 313.726562 L 459.65625 327.054688 C 459.527344 327.203125 459.34375 327.277344 459.160156 327.277344 " fill-opacity="1" fill-rule="nonzero"/><path fill="#000000" d="M 451.4375 325.265625 C 451.277344 325.265625 451.117188 325.210938 450.992188 325.097656 C 450.714844 324.855469 450.691406 324.433594 450.9375 324.152344 L 462.761719 310.804688 C 463.863281 309.5625 465.390625 308.824219 466.949219 308.78125 C 468.414062 308.742188 469.746094 309.289062 470.757812 310.316406 C 471.390625 310.953125 471.847656 311.734375 472.117188 312.625 C 472.222656 312.976562 472.023438 313.351562 471.667969 313.457031 C 471.308594 313.5625 470.941406 313.363281 470.835938 313.011719 C 470.632812 312.328125 470.285156 311.738281 469.808594 311.253906 C 469.058594 310.496094 468.0625 310.085938 466.988281 310.117188 C 465.792969 310.148438 464.617188 310.722656 463.757812 311.691406 L 451.933594 325.039062 C 451.800781 325.191406 451.617188 325.265625 451.4375 325.265625 " fill-opacity="1" fill-rule="nonzero"/><path fill="#000000" d="M 477.144531 336.867188 C 477.058594 336.867188 476.96875 336.851562 476.886719 336.8125 C 476.542969 336.671875 476.386719 336.277344 476.53125 335.9375 L 492.015625 299.496094 C 492.925781 297.355469 491.925781 294.867188 489.785156 293.957031 C 488.746094 293.511719 487.601562 293.503906 486.554688 293.925781 C 485.511719 294.34375 484.695312 295.148438 484.253906 296.1875 L 467.980469 332.308594 C 467.828125 332.644531 467.433594 332.792969 467.097656 332.640625 C 466.761719 332.488281 466.609375 332.09375 466.761719 331.757812 L 483.03125 295.652344 C 483.605469 294.296875 484.683594 293.238281 486.058594 292.683594 C 487.433594 292.128906 488.945312 292.144531 490.308594 292.726562 C 493.125 293.925781 494.441406 297.199219 493.242188 300.019531 L 477.757812 336.460938 C 477.648438 336.714844 477.40625 336.867188 477.144531 336.867188 " fill-opacity="1" fill-rule="nonzero"/><path fill="#000000" d="M 451.257812 393.140625 C 451.144531 393.140625 451.035156 393.113281 450.933594 393.058594 C 450.609375 392.882812 450.496094 392.472656 450.671875 392.152344 L 463.734375 368.570312 C 463.777344 368.5 463.828125 368.4375 463.886719 368.386719 L 483.933594 351.300781 C 483.976562 351.265625 484.015625 351.238281 484.058594 351.21875 L 497.757812 343.933594 C 499.984375 342.75 501.023438 339.914062 500.078125 337.609375 C 499.632812 336.527344 498.816406 335.726562 497.777344 335.355469 C 496.71875 334.96875 495.550781 335.070312 494.492188 335.636719 L 474.640625 344.269531 C 474.296875 344.417969 473.90625 344.261719 473.757812 343.921875 C 473.613281 343.585938 473.769531 343.191406 474.109375 343.042969 L 493.914062 334.433594 C 495.261719 333.710938 496.816406 333.582031 498.230469 334.097656 C 499.628906 334.601562 500.722656 335.667969 501.3125 337.101562 C 502.511719 340.023438 501.199219 343.617188 498.386719 345.113281 L 484.746094 352.363281 L 464.847656 369.324219 L 451.839844 392.800781 C 451.71875 393.015625 451.488281 393.140625 451.257812 393.140625 " fill-opacity="1" fill-rule="nonzero"/><path fill="#000000" d="M 471.703125 351.5 C 471.625 351.5 471.550781 351.484375 471.472656 351.457031 C 471.125 351.328125 470.949219 350.941406 471.078125 350.597656 L 476.519531 335.964844 C 476.648438 335.621094 477.035156 335.445312 477.378906 335.574219 C 477.722656 335.703125 477.898438 336.085938 477.773438 336.433594 L 472.332031 351.0625 C 472.230469 351.332031 471.976562 351.5 471.703125 351.5 " fill-opacity="1" fill-rule="nonzero"/><path fill="#000000" d="M 423.921875 377.957031 C 423.839844 377.957031 423.753906 377.941406 423.667969 377.902344 C 423.328125 377.765625 423.164062 377.375 423.308594 377.03125 L 437.0625 343.71875 C 438.371094 340.464844 440.089844 337.375 442.175781 334.550781 L 450.925781 324.167969 C 451.164062 323.882812 451.582031 323.847656 451.867188 324.085938 C 452.148438 324.324219 452.183594 324.746094 451.945312 325.027344 L 443.222656 335.378906 C 441.230469 338.078125 439.5625 341.066406 438.300781 344.222656 L 424.539062 377.542969 C 424.433594 377.800781 424.1875 377.957031 423.921875 377.957031 " fill-opacity="1" fill-rule="nonzero"/><path fill="#020202" d="M 451.179688 391.546875 L 424.941406 376.164062 L 429.613281 363.03125 L 460.21875 376.324219 L 451.179688 391.546875 " fill-opacity="1" fill-rule="nonzero"/><g clip-path="url(#fc03b8d398)"><path fill="#8c7bff" d="M 149.667969 453.53125 L 194.007812 385.988281 C 205.691406 368.1875 225.53125 357.472656 246.792969 357.476562 L 334.726562 357.492188 C 351.105469 357.496094 366.125 366.617188 373.707031 381.15625 L 414.519531 459.398438 C 421.996094 473.757812 416.4375 491.472656 402.105469 498.964844 C 387.769531 506.457031 370.089844 500.890625 362.609375 486.53125 L 361.371094 484.144531 L 361.371094 568.832031 L 180.167969 568.832031 L 212.726562 464.207031 L 198.582031 485.753906 C 189.699219 499.289062 171.550781 503.042969 158.042969 494.144531 C 144.535156 485.246094 140.785156 467.0625 149.667969 453.53125 " fill-opacity="1" fill-rule="nonzero"/></g><path fill="#fed101" d="M 313.269531 420.183594 L 313.269531 357.46875 L 259.648438 357.46875 Z M 313.269531 420.183594 " fill-opacity="1" fill-rule="nonzero"/><path fill="#000000" d="M 361.726562 457.234375 L 361.726562 506.140625 L 305.039062 506.140625 L 311.519531 485.515625 C 311.496094 485.523438 311.476562 485.527344 311.457031 485.53125 C 311.1875 485.597656 310.914062 485.664062 310.640625 485.726562 C 310.484375 485.761719 310.328125 485.792969 310.171875 485.824219 C 308.554688 486.160156 306.914062 486.386719 305.261719 486.484375 L 305.226562 486.554688 L 277.667969 486.554688 L 277.667969 506.535156 L 199.519531 506.535156 L 215.195312 457.234375 L 361.726562 457.234375 " fill-opacity="1" fill-rule="nonzero"/><path fill="#000000" d="M 222.238281 442.054688 C 222.101562 442.054688 221.960938 442.011719 221.84375 441.925781 C 221.546875 441.707031 221.484375 441.289062 221.703125 440.992188 L 232.257812 426.667969 C 232.476562 426.371094 232.894531 426.308594 233.191406 426.527344 C 233.488281 426.746094 233.550781 427.160156 233.332031 427.460938 L 222.777344 441.785156 C 222.644531 441.960938 222.441406 442.054688 222.238281 442.054688 " fill-opacity="1" fill-rule="nonzero"/><path fill="#000000" d="M 315.851562 427.730469 C 315.839844 427.730469 315.832031 427.730469 315.824219 427.730469 L 281.320312 426.394531 C 280.960938 426.382812 280.679688 426.085938 280.679688 425.726562 L 280.679688 401.824219 L 254.457031 401.824219 C 254.132812 401.824219 253.855469 401.589844 253.796875 401.269531 L 246.136719 357.59375 C 246.074219 357.226562 246.316406 356.882812 246.679688 356.816406 C 247.039062 356.753906 247.390625 356.996094 247.453125 357.359375 L 255.015625 400.484375 L 281.347656 400.484375 C 281.714844 400.484375 282.015625 400.785156 282.015625 401.15625 L 282.015625 425.082031 L 315.875 426.394531 C 316.242188 426.410156 316.53125 426.71875 316.515625 427.089844 C 316.503906 427.449219 316.207031 427.730469 315.851562 427.730469 " fill-opacity="1" fill-rule="nonzero"/><path fill="#000000" d="M 216.460938 559 C 216.089844 559 215.792969 558.703125 215.792969 558.332031 L 215.792969 527.414062 C 215.792969 527.046875 216.089844 526.75 216.460938 526.75 L 280.621094 526.75 C 280.992188 526.75 281.289062 527.046875 281.289062 527.414062 L 281.289062 547.003906 C 281.289062 547.371094 280.992188 547.671875 280.621094 547.671875 C 280.253906 547.671875 279.953125 547.371094 279.953125 547.003906 L 279.953125 528.085938 L 217.125 528.085938 L 217.125 558.332031 C 217.125 558.703125 216.828125 559 216.460938 559 " fill-opacity="1" fill-rule="nonzero"/><path fill="#8c7bff" d="M 414.871094 488.109375 L 470.714844 387.675781 L 419.570312 359.132812 L 363.703125 459.609375 C 355.84375 473.742188 360.914062 491.578125 375.03125 499.453125 C 389.164062 507.339844 407.003906 502.257812 414.871094 488.109375 " fill-opacity="1" fill-rule="nonzero"/><path fill="#fda4ff" d="M 350.183594 433.214844 L 338.273438 433.214844 C 332.910156 433.214844 327.613281 434.4375 322.789062 436.789062 L 299.804688 447.976562 L 350.183594 447.976562 C 354.167969 447.976562 357.398438 444.742188 357.398438 440.75 L 357.398438 440.441406 C 357.398438 436.453125 354.167969 433.214844 350.183594 433.214844 " fill-opacity="1" fill-rule="nonzero"/><path fill="#000000" d="M 302.699219 447.3125 L 350.183594 447.3125 C 353.792969 447.3125 356.730469 444.367188 356.730469 440.75 L 356.730469 440.441406 C 356.730469 436.824219 353.792969 433.882812 350.183594 433.882812 L 338.273438 433.882812 C 333.039062 433.882812 327.785156 435.09375 323.078125 437.386719 Z M 350.183594 448.648438 L 296.90625 448.648438 L 322.496094 436.183594 C 327.382812 433.804688 332.839844 432.546875 338.273438 432.546875 L 350.183594 432.546875 C 354.53125 432.546875 358.066406 436.089844 358.066406 440.441406 L 358.066406 440.75 C 358.066406 445.105469 354.53125 448.648438 350.183594 448.648438 " fill-opacity="1" fill-rule="nonzero"/><path fill="#fed101" d="M 315.847656 499.640625 L 393.324219 499.640625 L 421.707031 409.3125 L 344.230469 409.3125 L 315.847656 499.640625 " fill-opacity="1" fill-rule="nonzero"/><path fill="#000000" d="M 316.757812 498.976562 L 392.835938 498.976562 L 420.796875 409.980469 L 344.722656 409.980469 Z M 393.816406 500.3125 L 314.941406 500.3125 L 315.214844 499.441406 L 343.742188 408.644531 L 422.617188 408.644531 L 422.34375 409.515625 L 393.816406 500.3125 " fill-opacity="1" fill-rule="nonzero"/><path fill="#ffffff" d="M 355.476562 416.199219 L 360.203125 401.15625 L 412.488281 401.15625 L 407.761719 416.199219 L 355.476562 416.199219 " fill-opacity="1" fill-rule="nonzero"/><path fill="#000000" d="M 356.386719 415.527344 L 407.269531 415.527344 L 411.578125 401.824219 L 360.691406 401.824219 Z M 408.25 416.863281 L 354.566406 416.863281 L 359.710938 400.484375 L 413.394531 400.484375 L 408.25 416.863281 " fill-opacity="1" fill-rule="nonzero"/><path fill="#fda4ff" d="M 345.492188 438.070312 L 359.964844 432.457031 C 362.585938 431.4375 365.40625 433.378906 365.40625 436.191406 L 365.40625 436.585938 C 365.40625 438.238281 364.390625 439.722656 362.851562 440.320312 L 349.570312 445.472656 C 348.015625 446.070312 346.367188 446.378906 344.703125 446.378906 L 329.445312 446.378906 L 329.445312 438.070312 L 345.492188 438.070312 " fill-opacity="1" fill-rule="nonzero"/><path fill="#fda4ff" d="M 351.9375 453.421875 L 363.339844 449 C 365.957031 447.984375 368.777344 449.917969 368.777344 452.734375 L 368.777344 453.125 C 368.777344 454.78125 367.761719 456.265625 366.226562 456.863281 L 352.941406 462.011719 C 351.390625 462.617188 349.742188 462.921875 348.078125 462.921875 L 321.148438 462.921875 L 321.148438 454.613281 L 345.566406 454.613281 C 347.746094 454.613281 349.90625 454.207031 351.9375 453.421875 " fill-opacity="1" fill-rule="nonzero"/><path fill="#fda4ff" d="M 349.699219 445.398438 L 364.859375 439.523438 C 367.503906 438.5 370.347656 440.453125 370.347656 443.292969 L 370.347656 443.613281 C 370.347656 445.28125 369.324219 446.777344 367.769531 447.378906 L 351.867188 453.539062 C 349.988281 454.269531 347.988281 454.644531 345.972656 454.644531 L 321.148438 454.644531 L 321.148438 446.332031 L 344.707031 446.332031 C 346.414062 446.332031 348.105469 446.015625 349.699219 445.398438 " fill-opacity="1" fill-rule="nonzero"/><path fill="#fda4ff" d="M 348.070312 462.898438 C 349.753906 462.898438 351.429688 462.589844 353 461.980469 L 360.664062 459.007812 C 363.28125 457.996094 366.097656 459.925781 366.097656 462.738281 L 366.097656 463.144531 C 366.097656 464.792969 365.085938 466.277344 363.546875 466.871094 L 354.003906 470.574219 C 352.914062 470.996094 351.753906 471.214844 350.582031 471.214844 L 321.148438 471.214844 L 321.148438 462.898438 L 348.070312 462.898438 " fill-opacity="1" fill-rule="nonzero"/><path fill="#fda4ff" d="M 320.390625 460.761719 L 347.117188 450.398438 L 347.117188 469.691406 L 326.34375 477.746094 C 322.410156 479.273438 318.226562 480.054688 314.003906 480.054688 L 304.191406 480.054688 L 304.191406 460.765625 L 320.390625 460.761719 " fill-opacity="1" fill-rule="nonzero"/><path fill="#fda4ff" d="M 328.65625 438.046875 L 337.910156 438.046875 L 316.039062 480.054688 L 302.046875 480.054688 L 302.046875 446.945312 L 313.734375 441.402344 C 318.398438 439.191406 323.496094 438.046875 328.65625 438.046875 " fill-opacity="1" fill-rule="nonzero"/><path fill="#fda4ff" d="M 272.210938 480.054688 L 308.078125 480.054688 L 308.078125 446.945312 L 272.210938 446.945312 L 272.210938 480.054688 " fill-opacity="1" fill-rule="nonzero"/><path fill="#000000" d="M 297.058594 480.054688 L 272.210938 480.054688 L 272.210938 446.945312 L 294.433594 446.945312 L 297.058594 480.054688 " fill-opacity="1" fill-rule="nonzero"/><path fill="#000000" d="M 345.972656 455.3125 L 330.582031 455.3125 C 330.210938 455.3125 329.914062 455.015625 329.914062 454.644531 C 329.914062 454.277344 330.210938 453.976562 330.582031 453.976562 L 345.972656 453.976562 C 347.914062 453.976562 349.816406 453.621094 351.628906 452.917969 L 367.527344 446.753906 C 368.816406 446.257812 369.679688 444.992188 369.679688 443.613281 L 369.679688 443.292969 C 369.679688 442.164062 369.148438 441.148438 368.214844 440.507812 C 367.289062 439.875 366.148438 439.742188 365.101562 440.148438 L 349.941406 446.023438 C 348.265625 446.667969 346.503906 447 344.707031 447 L 330.582031 447 C 330.210938 447 329.914062 446.699219 329.914062 446.332031 C 329.914062 445.964844 330.210938 445.664062 330.582031 445.664062 L 344.707031 445.664062 C 346.339844 445.664062 347.9375 445.363281 349.457031 444.777344 L 364.617188 438.902344 C 366.0625 438.339844 367.691406 438.53125 368.972656 439.40625 C 370.253906 440.289062 371.019531 441.738281 371.019531 443.292969 L 371.019531 443.613281 C 371.019531 445.542969 369.808594 447.304688 368.011719 448.003906 L 352.109375 454.164062 C 350.144531 454.925781 348.078125 455.3125 345.972656 455.3125 " fill-opacity="1" fill-rule="nonzero"/><path fill="#000000" d="M 350.582031 471.882812 L 330.582031 471.882812 C 330.210938 471.882812 329.914062 471.585938 329.914062 471.214844 C 329.914062 470.84375 330.210938 470.546875 330.582031 470.546875 L 350.582031 470.546875 C 351.675781 470.546875 352.746094 470.34375 353.761719 469.953125 L 363.304688 466.25 C 364.574219 465.757812 365.429688 464.507812 365.429688 463.144531 L 365.429688 462.738281 C 365.429688 461.621094 364.902344 460.621094 363.980469 459.988281 C 363.0625 459.355469 361.945312 459.230469 360.90625 459.628906 L 353.238281 462.605469 C 351.585938 463.246094 349.84375 463.570312 348.070312 463.570312 L 330.582031 463.570312 C 330.210938 463.570312 329.914062 463.269531 329.914062 462.898438 C 329.914062 462.535156 330.210938 462.234375 330.582031 462.234375 L 348.070312 462.234375 C 349.679688 462.234375 351.257812 461.9375 352.757812 461.355469 L 360.421875 458.382812 C 361.859375 457.828125 363.46875 458.015625 364.734375 458.886719 C 366.007812 459.757812 366.765625 461.195312 366.765625 462.738281 L 366.765625 463.144531 C 366.765625 465.058594 365.566406 466.804688 363.785156 467.496094 L 354.246094 471.195312 C 353.074219 471.652344 351.839844 471.882812 350.582031 471.882812 " fill-opacity="1" fill-rule="nonzero"/><path fill="#000000" d="M 316.445312 480.726562 L 271.542969 480.726562 L 271.542969 446.277344 L 301.894531 446.277344 L 319.683594 437.554688 C 320.015625 437.390625 320.417969 437.527344 320.578125 437.859375 C 320.742188 438.191406 320.601562 438.59375 320.273438 438.753906 L 302.203125 447.613281 L 272.878906 447.613281 L 272.878906 479.390625 L 315.628906 479.390625 L 315.65625 479.339844 L 316.035156 479.320312 C 319.503906 479.105469 322.890625 478.367188 326.101562 477.125 L 343.0625 470.546875 L 350.582031 470.546875 C 351.675781 470.546875 352.742188 470.34375 353.761719 469.953125 L 363.304688 466.25 C 364.574219 465.757812 365.429688 464.507812 365.429688 463.144531 L 365.429688 462.738281 C 365.429688 461.648438 364.921875 460.664062 364.035156 460.03125 C 363.148438 459.398438 362.050781 459.238281 361.027344 459.59375 L 360.566406 458.339844 L 365.984375 456.238281 C 367.257812 455.742188 368.109375 454.492188 368.109375 453.125 L 368.109375 452.738281 C 368.109375 451.742188 367.695312 450.839844 366.941406 450.199219 C 366.191406 449.5625 365.210938 449.285156 364.25 449.445312 L 357.867188 450.5 L 367.527344 446.757812 C 368.816406 446.257812 369.679688 444.992188 369.679688 443.613281 L 369.679688 443.292969 C 369.679688 442.164062 369.148438 441.148438 368.214844 440.507812 C 367.289062 439.875 366.148438 439.742188 365.101562 440.148438 L 363.257812 440.863281 L 362.746094 439.628906 C 363.957031 439.09375 364.738281 437.898438 364.738281 436.582031 L 364.738281 436.191406 C 364.738281 435.074219 364.210938 434.066406 363.285156 433.4375 C 362.371094 432.808594 361.246094 432.675781 360.207031 433.082031 L 345.613281 438.738281 L 336.804688 438.738281 L 336.816406 438.714844 L 330.582031 438.714844 C 330.210938 438.714844 329.914062 438.414062 329.914062 438.046875 C 329.914062 437.675781 330.210938 437.375 330.582031 437.375 L 339.003906 437.375 L 338.988281 437.398438 L 345.367188 437.398438 L 359.722656 431.832031 C 361.15625 431.277344 362.773438 431.464844 364.042969 432.335938 C 365.3125 433.207031 366.074219 434.648438 366.074219 436.191406 L 366.074219 436.582031 C 366.074219 437.3125 365.90625 438.011719 365.59375 438.640625 C 366.765625 438.460938 367.972656 438.722656 368.972656 439.40625 C 370.253906 440.285156 371.019531 441.738281 371.019531 443.292969 L 371.019531 443.613281 C 371.019531 445.542969 369.808594 447.304688 368.011719 448.003906 L 366.738281 448.496094 C 367.117188 448.671875 367.476562 448.902344 367.804688 449.179688 C 368.847656 450.066406 369.445312 451.363281 369.445312 452.738281 L 369.445312 453.125 C 369.445312 455.042969 368.25 456.792969 366.464844 457.484375 L 363.957031 458.457031 C 364.253906 458.585938 364.539062 458.75 364.8125 458.941406 C 366.050781 459.828125 366.765625 461.210938 366.765625 462.738281 L 366.765625 463.144531 C 366.765625 465.054688 365.566406 466.804688 363.785156 467.496094 L 354.246094 471.195312 C 353.074219 471.652344 351.839844 471.882812 350.582031 471.882812 L 343.3125 471.882812 L 326.585938 478.371094 C 323.363281 479.621094 319.96875 480.378906 316.496094 480.628906 L 316.445312 480.726562 " fill-opacity="1" fill-rule="nonzero"/><path fill="#8c7bff" d="M 173.714844 500.035156 L 288.476562 500.035156 L 288.476562 441.386719 L 173.714844 441.386719 C 157.546875 441.386719 144.441406 454.503906 144.441406 470.6875 L 144.441406 470.734375 C 144.441406 486.917969 157.546875 500.035156 173.714844 500.035156 " fill-opacity="1" fill-rule="nonzero"/><path fill="#000000" d="M 201.914062 500.703125 L 173.710938 500.703125 C 157.203125 500.703125 143.773438 487.25 143.773438 470.710938 C 143.773438 464.417969 145.695312 458.398438 149.335938 453.292969 C 149.550781 452.996094 149.96875 452.925781 150.265625 453.140625 C 150.566406 453.351562 150.636719 453.769531 150.421875 454.070312 C 146.945312 458.945312 145.109375 464.699219 145.109375 470.710938 C 145.109375 486.511719 157.9375 499.367188 173.710938 499.367188 L 201.914062 499.367188 C 202.285156 499.367188 202.582031 499.664062 202.582031 500.035156 C 202.582031 500.40625 202.285156 500.703125 201.914062 500.703125 " fill-opacity="1" fill-rule="nonzero"/><path fill="#000000" d="M 288.476562 500.703125 L 201.914062 500.703125 C 201.546875 500.703125 201.246094 500.40625 201.246094 500.035156 C 201.246094 499.664062 201.546875 499.367188 201.914062 499.367188 L 287.808594 499.367188 L 287.808594 442.054688 L 184.699219 442.054688 C 184.332031 442.054688 184.035156 441.753906 184.035156 441.386719 C 184.035156 441.019531 184.332031 440.71875 184.699219 440.71875 L 288.476562 440.71875 C 288.847656 440.71875 289.144531 441.019531 289.144531 441.386719 L 289.144531 500.035156 C 289.144531 500.40625 288.847656 500.703125 288.476562 500.703125 " fill-opacity="1" fill-rule="nonzero"/><path fill="#000000" d="M 149.667969 454.652344 C 149.542969 454.652344 149.414062 454.613281 149.300781 454.542969 C 148.996094 454.34375 148.90625 453.925781 149.109375 453.617188 L 193.449219 385.621094 C 205.292969 367.578125 225.230469 356.808594 246.78125 356.808594 C 247.152344 356.808594 247.460938 357.101562 247.460938 357.476562 C 247.460938 357.84375 247.164062 358.144531 246.796875 358.144531 C 246.792969 358.144531 246.785156 358.144531 246.78125 358.144531 C 225.679688 358.144531 206.160156 368.6875 194.566406 386.355469 L 150.226562 454.347656 C 150.097656 454.542969 149.882812 454.652344 149.667969 454.652344 " fill-opacity="1" fill-rule="nonzero"/><path fill="#fda4ff" d="M 279.367188 357.511719 L 279.074219 319.945312 L 298.582031 319.792969 L 298.871094 382.316406 L 279.367188 357.511719 " fill-opacity="1" fill-rule="nonzero"/><path fill="#000000" d="M 246.949219 331.46875 C 246.949219 341.949219 255.433594 350.453125 265.898438 350.453125 C 276.367188 350.453125 284.847656 341.949219 284.847656 331.46875 C 284.847656 320.984375 276.367188 312.484375 265.898438 312.484375 C 255.433594 312.484375 246.949219 320.984375 246.949219 331.46875 " fill-opacity="1" fill-rule="nonzero"/><path fill="#000000" d="M 259.648438 306.550781 C 259.648438 315.511719 266.902344 322.777344 275.847656 322.777344 C 284.796875 322.777344 292.046875 315.511719 292.046875 306.550781 C 292.046875 297.585938 284.796875 290.320312 275.847656 290.320312 C 266.902344 290.320312 259.648438 297.585938 259.648438 306.550781 " fill-opacity="1" fill-rule="nonzero"/><path fill="#000000" d="M 241.9375 309.53125 C 241.9375 316.457031 247.542969 322.074219 254.457031 322.074219 C 261.371094 322.074219 266.972656 316.457031 266.972656 309.53125 C 266.972656 302.605469 261.371094 296.992188 254.457031 296.992188 C 247.542969 296.992188 241.9375 302.605469 241.9375 309.53125 " fill-opacity="1" fill-rule="nonzero"/><path fill="#000000" d="M 284.980469 338.5 C 279.691406 333.421875 279.074219 319.945312 279.074219 319.945312 L 298.582031 319.792969 L 298.6875 342.914062 C 298.6875 342.914062 291.382812 344.644531 284.980469 338.5 " fill-opacity="1" fill-rule="nonzero"/><path fill="#fda4ff" d="M 279.378906 320.039062 C 279.460938 330.308594 287.109375 338.574219 296.46875 338.5 C 305.828125 338.425781 313.351562 330.042969 313.273438 319.773438 C 313.191406 309.503906 305.539062 301.238281 296.179688 301.3125 C 286.824219 301.382812 279.300781 309.765625 279.378906 320.039062 " fill-opacity="1" fill-rule="nonzero"/><path fill="#ffffff" d="M 292.542969 330.433594 C 293.777344 331.550781 295.363281 332.296875 297.148438 332.464844 C 301.121094 332.839844 304.683594 330.226562 305.640625 326.46875 L 292.542969 330.433594 " fill-opacity="1" fill-rule="nonzero"/><path fill="#000000" d="M 294.414062 339.722656 C 293.484375 339.722656 292.546875 339.652344 291.632812 339.34375 C 291.28125 339.230469 291.09375 338.851562 291.207031 338.5 C 291.324219 338.152344 291.703125 337.960938 292.050781 338.078125 C 293.152344 338.441406 294.351562 338.402344 295.625 338.359375 C 296.007812 338.34375 296.398438 338.332031 296.785156 338.328125 C 305.4375 338.257812 312.683594 329.925781 312.609375 320.132812 C 312.53125 310.480469 305.375 302.679688 296.628906 302.679688 C 296.589844 302.679688 296.550781 302.679688 296.511719 302.679688 C 288.296875 302.746094 281.523438 309.582031 280.761719 318.574219 C 280.730469 318.945312 280.421875 319.214844 280.039062 319.183594 C 279.671875 319.152344 279.398438 318.828125 279.429688 318.460938 C 280.25 308.773438 287.589844 301.414062 296.503906 301.34375 C 296.542969 301.34375 296.585938 301.34375 296.628906 301.34375 C 306.109375 301.34375 313.863281 309.738281 313.945312 320.117188 C 314.023438 330.640625 306.171875 339.589844 296.796875 339.664062 C 296.417969 339.667969 296.042969 339.679688 295.671875 339.695312 C 295.257812 339.707031 294.835938 339.722656 294.414062 339.722656 " fill-opacity="1" fill-rule="nonzero"/><path fill="#000000" d="M 297.003906 312.941406 L 313.214844 320.777344 C 313.242188 320.308594 313.273438 319.832031 313.269531 319.347656 C 313.1875 309.128906 305.574219 300.902344 296.261719 300.976562 C 286.949219 301.046875 278.867188 309.808594 278.945312 320.027344 C 278.953125 320.71875 279 321.398438 279.070312 322.074219 L 297.003906 312.941406 " fill-opacity="1" fill-rule="nonzero"/><path fill="#4ada85" d="M 637.582031 444.234375 C 637.582031 474.78125 612.851562 499.546875 582.34375 499.546875 C 551.832031 499.546875 527.101562 474.78125 527.101562 444.234375 C 527.101562 413.683594 551.832031 388.921875 582.34375 388.921875 C 612.851562 388.921875 637.582031 413.683594 637.582031 444.234375 " fill-opacity="1" fill-rule="nonzero"/><path fill="#000000" d="M 536.9375 422.371094 L 587.894531 490.917969 L 633.097656 422.394531 C 630.125 415.480469 625.785156 409.304688 620.417969 404.1875 L 586.886719 455.015625 L 553.460938 410.054688 L 536.9375 422.371094 " fill-opacity="1" fill-rule="nonzero"/><path fill="#ffffff" d="M 577.113281 486.597656 L 526.15625 418.054688 L 542.679688 405.738281 L 576.105469 450.699219 L 630.234375 368.660156 L 647.421875 380.03125 L 577.113281 486.597656 " fill-opacity="1" fill-rule="nonzero"/><path fill="#000000" d="M 527.089844 418.191406 L 577.078125 485.433594 L 646.496094 380.222656 L 630.425781 369.589844 L 576.664062 451.066406 C 576.542969 451.246094 576.34375 451.359375 576.125 451.367188 C 575.890625 451.378906 575.699219 451.273438 575.570312 451.09375 L 542.546875 406.671875 Z M 577.113281 487.265625 C 576.902344 487.265625 576.699219 487.167969 576.578125 487 L 525.621094 418.453125 C 525.402344 418.160156 525.460938 417.742188 525.757812 417.519531 L 542.28125 405.203125 C 542.425781 405.097656 542.601562 405.050781 542.777344 405.078125 C 542.957031 405.101562 543.113281 405.195312 543.214844 405.339844 L 576.074219 449.535156 L 629.671875 368.292969 C 629.773438 368.144531 629.925781 368.039062 630.097656 368.007812 C 630.273438 367.972656 630.453125 368.007812 630.601562 368.105469 L 647.789062 379.472656 C 648.097656 379.679688 648.183594 380.089844 647.976562 380.402344 L 577.671875 486.96875 C 577.546875 487.148438 577.351562 487.261719 577.128906 487.265625 C 577.121094 487.265625 577.121094 487.265625 577.113281 487.265625 " fill-opacity="1" fill-rule="nonzero"/><path fill="#ffffff" d="M 564.929688 497.140625 C 564.5625 497.140625 564.257812 496.839844 564.257812 496.46875 L 564.257812 483.636719 L 543.246094 483.636719 C 542.878906 483.636719 542.578125 483.335938 542.578125 482.964844 C 542.578125 482.597656 542.878906 482.300781 543.246094 482.300781 L 564.929688 482.300781 C 565.296875 482.300781 565.597656 482.597656 565.597656 482.964844 L 565.597656 496.46875 C 565.597656 496.839844 565.296875 497.140625 564.929688 497.140625 " fill-opacity="1" fill-rule="nonzero"/><path fill="#ffffff" d="M 187.816406 93.421875 C 187.816406 236.464844 271.078125 263.988281 271.078125 263.988281 C 271.078125 263.988281 354.34375 227.765625 354.34375 93.421875 L 271.078125 45.136719 L 187.816406 93.421875 " fill-opacity="1" fill-rule="nonzero"/><path fill="#000000" d="M 188.480469 93.808594 C 188.5625 167.257812 211.070312 209.449219 229.957031 231.914062 C 249.222656 254.832031 268.667969 262.40625 271.046875 263.265625 C 273.398438 262.175781 292.941406 252.597656 312.242188 228.601562 C 331.109375 205.152344 353.59375 162.742188 353.675781 93.808594 L 271.078125 45.910156 Z M 271.078125 264.65625 C 271.007812 264.65625 270.9375 264.644531 270.871094 264.621094 C 270.660156 264.550781 249.636719 257.398438 228.9375 232.78125 C 216.796875 218.335938 207.125 200.796875 200.195312 180.636719 C 191.535156 155.46875 187.148438 126.128906 187.148438 93.425781 C 187.148438 93.1875 187.273438 92.964844 187.480469 92.84375 L 270.746094 44.558594 C 270.949219 44.441406 271.207031 44.441406 271.414062 44.558594 L 354.675781 92.84375 C 354.882812 92.964844 355.011719 93.1875 355.011719 93.425781 C 355.011719 124.144531 350.621094 152.25 341.964844 176.976562 C 335.03125 196.765625 325.363281 214.4375 313.230469 229.503906 C 292.550781 255.183594 271.554688 264.511719 271.34375 264.597656 C 271.261719 264.636719 271.167969 264.65625 271.078125 264.65625 " fill-opacity="1" fill-rule="nonzero"/><path fill="#4ada85" d="M 271.078125 245.40625 C 271.078125 245.40625 340.203125 215.339844 340.203125 103.808594 L 271.078125 63.722656 L 271.078125 245.40625 " fill-opacity="1" fill-rule="nonzero"/><path fill="#000000" d="M 202.621094 104.199219 C 202.703125 165.097656 221.363281 199.960938 237.027344 218.492188 C 251.804688 235.976562 266.703125 242.574219 270.410156 244.015625 L 270.410156 65.5625 Z M 271.078125 245.644531 C 271.007812 245.644531 270.941406 245.636719 270.871094 245.609375 C 270.699219 245.554688 253.210938 239.710938 236.007812 219.355469 C 225.917969 207.421875 217.886719 192.894531 212.125 176.183594 C 204.933594 155.320312 201.285156 130.96875 201.285156 103.8125 C 201.285156 103.570312 201.414062 103.347656 201.625 103.230469 L 270.746094 63.832031 C 270.953125 63.714844 271.207031 63.714844 271.414062 63.832031 C 271.617188 63.957031 271.746094 64.175781 271.746094 64.414062 L 271.746094 244.972656 C 271.746094 245.1875 271.644531 245.390625 271.46875 245.515625 C 271.355469 245.601562 271.21875 245.644531 271.078125 245.644531 " fill-opacity="1" fill-rule="nonzero"/><path fill="#fed101" d="M 284.191406 127.648438 C 284.191406 124.457031 281.59375 121.863281 278.398438 121.863281 L 264.230469 121.863281 C 261.039062 121.863281 258.441406 124.457031 258.441406 127.648438 L 258.441406 156.207031 L 284.191406 156.207031 Z M 250.167969 160.34375 L 250.167969 127.648438 C 250.167969 119.898438 256.476562 113.59375 264.230469 113.59375 L 278.398438 113.59375 C 286.15625 113.59375 292.464844 119.898438 292.464844 127.648438 L 292.464844 160.34375 C 292.464844 162.625 290.613281 164.476562 288.328125 164.476562 L 254.304688 164.476562 C 252.019531 164.476562 250.167969 162.625 250.167969 160.34375 " fill-opacity="1" fill-rule="nonzero"/><path fill="#000000" d="M 259.109375 155.539062 L 283.523438 155.539062 L 283.523438 127.648438 C 283.523438 124.828125 281.222656 122.53125 278.398438 122.53125 L 264.230469 122.53125 C 261.40625 122.53125 259.109375 124.828125 259.109375 127.648438 Z M 284.191406 156.878906 L 258.441406 156.878906 C 258.070312 156.878906 257.773438 156.582031 257.773438 156.210938 L 257.773438 127.648438 C 257.773438 124.09375 260.667969 121.195312 264.230469 121.195312 L 278.398438 121.195312 C 281.960938 121.195312 284.859375 124.09375 284.859375 127.648438 L 284.859375 156.210938 C 284.859375 156.582031 284.558594 156.878906 284.191406 156.878906 Z M 264.230469 114.265625 C 256.84375 114.265625 250.832031 120.269531 250.832031 127.648438 L 250.832031 160.34375 C 250.832031 162.257812 252.390625 163.808594 254.304688 163.808594 L 288.328125 163.808594 C 290.238281 163.808594 291.796875 162.257812 291.796875 160.34375 L 291.796875 127.648438 C 291.796875 120.269531 285.785156 114.265625 278.398438 114.265625 Z M 288.328125 165.144531 L 254.304688 165.144531 C 251.652344 165.144531 249.5 162.992188 249.5 160.34375 L 249.5 127.648438 C 249.5 119.53125 256.109375 112.929688 264.230469 112.929688 L 278.398438 112.929688 C 286.523438 112.929688 293.132812 119.53125 293.132812 127.648438 L 293.132812 160.34375 C 293.132812 162.992188 290.976562 165.144531 288.328125 165.144531 " fill-opacity="1" fill-rule="nonzero"/><path fill="#fed101" d="M 303.628906 148.503906 C 303.652344 149.152344 303.667969 149.804688 303.667969 150.460938 C 303.667969 173.070312 289.078125 191.402344 271.078125 191.402344 C 253.082031 191.402344 238.492188 173.070312 238.492188 150.460938 C 238.492188 149.804688 238.507812 149.152344 238.53125 148.503906 L 303.628906 148.503906 " fill-opacity="1" fill-rule="nonzero"/><path fill="#000000" d="M 239.175781 149.171875 C 239.164062 149.601562 239.160156 150.03125 239.160156 150.464844 C 239.160156 172.671875 253.476562 190.734375 271.078125 190.734375 C 288.679688 190.734375 303 172.671875 303 150.464844 C 303 150.03125 302.992188 149.601562 302.980469 149.171875 Z M 271.078125 192.070312 C 252.742188 192.070312 237.824219 173.40625 237.824219 150.464844 C 237.824219 149.796875 237.839844 149.136719 237.863281 148.480469 C 237.875 148.121094 238.171875 147.835938 238.53125 147.835938 L 303.625 147.835938 C 303.984375 147.835938 304.277344 148.121094 304.292969 148.476562 C 304.320312 149.136719 304.332031 149.796875 304.332031 150.464844 C 304.332031 173.40625 289.414062 192.070312 271.078125 192.070312 " fill-opacity="1" fill-rule="nonzero"/><path fill="#000000" d="M 264.632812 177.738281 L 267.898438 164.371094 C 266.242188 163.355469 265.128906 161.539062 265.128906 159.453125 C 265.128906 156.265625 267.714844 153.679688 270.90625 153.679688 C 274.09375 153.679688 276.679688 156.265625 276.679688 159.453125 C 276.679688 161.539062 275.570312 163.355469 273.910156 164.371094 L 277.175781 177.738281 L 264.632812 177.738281 " fill-opacity="1" fill-rule="nonzero"/><path fill="#fda4ff" d="M 178.132812 67.515625 L 150.421875 25.042969 C 149.714844 23.960938 151.074219 22.722656 152.085938 23.535156 L 184.773438 49.800781 C 185.40625 50.308594 186.355469 50.011719 186.578125 49.230469 L 193.378906 25.582031 C 193.703125 24.460938 195.296875 24.492188 195.578125 25.625 L 203.851562 59.207031 C 204.035156 59.949219 204.882812 60.300781 205.535156 59.914062 L 222.484375 49.804688 C 223.464844 49.222656 224.597656 50.28125 224.082031 51.300781 L 215.851562 67.484375 C 215.527344 68.125 215.867188 68.898438 216.554688 69.09375 L 233.65625 73.933594 C 234.726562 74.238281 234.773438 75.742188 233.722656 76.105469 L 211.320312 83.886719 C 210.664062 84.117188 210.363281 84.867188 210.679688 85.484375 L 225.679688 114.597656 C 226.257812 115.71875 224.855469 116.8125 223.914062 115.96875 L 199.417969 94.117188 C 198.839844 93.605469 197.929688 93.804688 197.617188 94.511719 L 189.53125 112.9375 C 189.058594 114.019531 187.457031 113.753906 187.359375 112.578125 L 185.730469 93.167969 C 185.65625 92.273438 184.617188 91.808594 183.902344 92.363281 L 148.066406 120.015625 C 146.992188 120.84375 145.628906 119.425781 146.5 118.382812 L 174.761719 84.417969 C 175.296875 83.773438 174.980469 82.792969 174.167969 82.585938 L 154.007812 77.425781 C 152.867188 77.132812 152.867188 75.511719 154.007812 75.21875 L 177.460938 69.242188 C 178.21875 69.050781 178.558594 68.167969 178.132812 67.515625 " fill-opacity="1" fill-rule="nonzero"/></svg>