<?xml version="1.0" standalone="no"?>
<!DOCTYPE svg PUBLIC "-//W3C//DTD SVG 20010904//EN"
 "http://www.w3.org/TR/2001/REC-SVG-20010904/DTD/svg10.dtd">
<svg version="1.0" xmlns="http://www.w3.org/2000/svg"
 width="512.000000pt" height="512.000000pt" viewBox="0 0 512.000000 512.000000"
 preserveAspectRatio="xMidYMid meet">

<g transform="translate(0.000000,512.000000) scale(0.100000,-0.100000)"
fill="#fff" stroke="none">
<path d="M2445 5113 c-254 -53 -328 -96 -562 -327 l-163 -159 -492 236 c-271
131 -501 237 -511 237 -33 0 -61 -21 -174 -133 -70 -69 -117 -124 -124 -145
-19 -59 6 -86 251 -273 124 -95 298 -228 388 -297 l163 -126 -243 -242 -243
-242 -192 18 c-105 10 -204 15 -220 12 -32 -6 -285 -247 -310 -296 -19 -36
-10 -86 20 -114 14 -13 76 -36 165 -60 79 -22 145 -41 147 -43 2 -2 -5 -40
-15 -84 -50 -214 -69 -472 -51 -675 6 -69 14 -154 17 -190 5 -61 3 -70 -36
-154 -149 -320 -241 -670 -256 -971 -23 -464 167 -826 517 -984 358 -162 835
-126 1417 108 57 23 126 53 154 67 41 21 61 25 102 21 334 -29 382 -30 531
-19 312 25 560 91 830 222 135 66 276 150 322 193 70 63 8 182 -85 164 -15 -3
-72 -34 -127 -68 -174 -109 -389 -202 -578 -249 -45 -12 -90 -23 -99 -26 -17
-5 -18 5 -18 123 0 187 -28 278 -113 370 -44 48 -97 83 -167 109 -37 14 -98
18 -356 23 l-311 6 -41 29 c-51 35 -92 112 -92 173 0 101 -74 213 -168 256
-38 17 -75 22 -192 27 -130 6 -150 9 -196 33 -161 82 -192 299 -62 424 44 42
98 64 182 73 104 12 150 54 166 155 11 69 33 103 81 127 30 16 69 18 345 18
351 0 387 -5 454 -67 85 -76 84 -73 91 -393 6 -314 9 -332 72 -399 51 -54 103
-71 236 -80 135 -8 168 -22 216 -90 30 -43 30 -43 35 -214 3 -112 10 -180 18
-194 30 -53 107 -61 153 -17 l29 28 0 175 c0 226 -21 297 -112 390 -82 85
-167 118 -324 129 l-109 7 -6 275 c-5 245 -8 281 -27 332 -58 159 -189 275
-348 308 -32 7 -182 10 -400 8 l-349 -3 -55 -26 c-89 -41 -163 -128 -185 -216
l-12 -46 -72 -18 c-218 -55 -361 -233 -361 -449 0 -167 76 -306 218 -397 79
-51 131 -64 289 -71 175 -9 180 -12 194 -122 16 -131 84 -243 188 -309 91 -59
118 -63 451 -70 297 -6 306 -7 343 -29 20 -13 50 -45 65 -70 26 -45 27 -55 31
-198 l3 -152 -91 -7 c-103 -8 -267 0 -416 20 -825 113 -1519 733 -1725 1541
l-23 91 53 99 c64 122 230 394 239 394 4 0 18 -41 31 -91 33 -129 74 -172 144
-149 41 13 304 276 314 314 4 15 0 114 -10 219 l-17 192 243 243 242 243 299
-392 c313 -409 326 -423 390 -412 44 8 270 236 280 281 6 30 -19 88 -231 529
l-238 495 110 107 c115 112 251 204 504 341 l115 62 60 -12 c232 -46 549 -195
773 -364 102 -78 282 -241 282 -257 0 -5 -60 -9 -136 -9 -154 0 -226 -14 -315
-62 -167 -88 -276 -253 -298 -450 -5 -46 -15 -87 -24 -95 -8 -8 -43 -18 -78
-23 -82 -11 -120 -23 -172 -54 -108 -62 -181 -177 -199 -309 -31 -233 86 -430
291 -491 47 -14 119 -16 483 -16 297 0 436 3 451 11 54 28 71 83 43 138 -26
50 -36 51 -484 51 l-417 0 -52 24 c-36 17 -60 38 -80 67 -25 37 -28 53 -31
133 -3 79 0 97 20 136 33 65 89 100 174 110 87 9 139 31 187 78 55 53 76 101
88 200 17 140 71 235 173 299 70 45 118 53 308 53 97 0 188 4 202 10 23 9 28
4 81 -78 31 -48 84 -145 119 -217 280 -570 284 -1226 11 -1813 -30 -65 -55
-128 -55 -140 0 -87 109 -132 168 -69 27 29 102 187 152 322 46 123 91 301
117 460 22 138 24 450 4 613 -11 85 -12 121 -4 140 6 15 32 73 57 130 212 480
284 961 196 1307 -118 463 -506 718 -1051 691 -354 -17 -734 -131 -1158 -349
l-154 -78 7 32 c31 157 26 324 -12 362 -11 11 -39 23 -63 28 -45 8 -168 10
-204 2z m100 -245 c-9 -76 -32 -153 -68 -227 -27 -55 -65 -100 -233 -271 -126
-129 -203 -215 -208 -233 -8 -35 2 -58 263 -600 110 -230 201 -422 201 -426 0
-4 -15 -22 -34 -40 l-33 -32 -65 83 c-35 46 -160 209 -278 363 -268 352 -271
355 -329 355 l-45 0 -323 -323 -323 -323 0 -53 c0 -29 7 -128 16 -219 l15
-165 -42 -43 c-30 -30 -45 -40 -50 -32 -4 7 -37 123 -74 258 -37 135 -71 253
-76 262 -15 28 -40 37 -302 109 -138 38 -251 70 -253 72 -2 2 16 23 41 47 l44
43 195 -18 c108 -9 206 -15 219 -11 12 3 167 151 345 328 308 310 322 325 322
361 0 30 -8 46 -37 77 -21 21 -201 163 -401 315 -199 152 -362 279 -362 284 0
4 15 21 33 38 l32 32 488 -235 c359 -172 497 -234 523 -234 34 0 51 14 238
198 184 182 208 202 286 241 83 40 182 69 248 70 l33 1 -6 -52z m1710 42 c194
-28 337 -93 449 -203 207 -205 266 -548 170 -987 -22 -99 -112 -389 -134 -428
-4 -9 -17 16 -34 65 -38 107 -132 299 -201 408 -267 424 -640 737 -1098 921
l-128 51 133 46 c326 114 621 158 843 127z m-3621 -1828 l59 -17 24 -88 24
-88 -104 -157 c-58 -86 -117 -178 -132 -204 -15 -27 -29 -48 -32 -48 -10 0 7
281 22 382 8 52 21 127 30 166 19 81 16 80 109 54z m-199 -1372 c174 -433 468
-795 859 -1055 138 -92 326 -189 455 -235 57 -20 87 -36 79 -40 -7 -4 -80 -30
-163 -58 -521 -175 -931 -160 -1195 43 -93 71 -156 157 -203 277 -48 119 -60
198 -60 383 -1 193 18 316 77 521 35 123 95 288 102 282 1 -2 24 -55 49 -118z"/>
<path d="M4148 1193 c-57 -35 -65 -109 -17 -154 49 -45 125 -34 155 22 18 37
18 65 -3 99 -29 49 -86 63 -135 33z"/>
</g>
</svg>
