<svg xmlns="http://www.w3.org/2000/svg" xmlns:xlink="http://www.w3.org/1999/xlink" width="1024" zoomAndPan="magnify" viewBox="0 0 768 576" height="768" preserveAspectRatio="xMidYMid meet" version="1.0"><defs><clipPath id="98494883ed"><path d="M 457.472656 536.125 L 652.148438 536.125 L 652.148438 562.867188 L 457.472656 562.867188 Z M 457.472656 536.125 " clip-rule="nonzero"/></clipPath></defs><rect x="-76.8" width="921.6" fill="#ffffff" y="-57.6" height="691.2" fill-opacity="1"/><rect x="-76.8" width="921.6" fill="#ffffff" y="-57.6" height="691.2" fill-opacity="1"/><rect x="-76.8" width="921.6" fill="#ffffff" y="-57.6" height="691.2" fill-opacity="1"/><path fill="#7764a6" d="M 645.539062 546.71875 C 645.539062 553.703125 537.796875 559.363281 404.894531 559.363281 C 271.992188 559.363281 164.25 553.703125 164.25 546.71875 C 164.25 539.730469 271.992188 534.070312 404.894531 534.070312 C 537.796875 534.070312 645.539062 539.730469 645.539062 546.71875 " fill-opacity="1" fill-rule="nonzero"/><g clip-path="url(#98494883ed)"><path fill="#7764a6" d="M 652.148438 549.816406 C 652.148438 557.046875 608.679688 562.910156 555.058594 562.910156 C 501.4375 562.910156 457.96875 557.046875 457.96875 549.816406 C 457.96875 542.582031 501.4375 536.71875 555.058594 536.71875 C 608.679688 536.71875 652.148438 542.582031 652.148438 549.816406 " fill-opacity="1" fill-rule="nonzero"/></g><path fill="#d5c7f4" d="M 445.800781 467.886719 C 460.398438 454.117188 469.664062 435.292969 496.402344 412.351562 C 513.425781 397.746094 614.03125 393.554688 627.730469 279.839844 C 629.171875 267.898438 628.902344 255.429688 627.152344 244.074219 C 598.886719 61.011719 351.582031 13.15625 209.679688 139.933594 C 171.898438 173.6875 86.195312 281.0625 161.835938 417.761719 C 214.039062 512.09375 347.859375 560.316406 445.800781 467.886719 " fill-opacity="1" fill-rule="nonzero"/><path fill="#1e1735" d="M 466.328125 128.425781 L 308.523438 128.425781 C 298.210938 128.425781 289.851562 136.78125 289.851562 147.089844 L 289.851562 528.34375 C 289.851562 538.652344 298.210938 547.011719 308.523438 547.011719 L 466.328125 547.011719 C 476.640625 547.011719 485 538.652344 485 528.34375 L 485 147.089844 C 485 136.78125 476.640625 128.425781 466.328125 128.425781 " fill-opacity="1" fill-rule="nonzero"/><path fill="#ffffff" d="M 473.972656 528.097656 C 473.972656 532.453125 470.4375 535.988281 466.078125 535.988281 L 308.777344 535.988281 C 304.414062 535.988281 300.878906 532.453125 300.878906 528.097656 L 300.878906 147.34375 C 300.878906 142.980469 304.414062 139.449219 308.777344 139.449219 L 466.078125 139.449219 C 470.4375 139.449219 473.972656 142.980469 473.972656 147.34375 L 473.972656 528.097656 " fill-opacity="1" fill-rule="nonzero"/><path fill="#7764a6" d="M 466.078125 139.449219 L 308.777344 139.449219 C 304.414062 139.449219 300.878906 142.980469 300.878906 147.34375 L 300.878906 156.105469 L 473.972656 156.105469 L 473.972656 147.34375 C 473.972656 142.980469 470.4375 139.449219 466.078125 139.449219 " fill-opacity="1" fill-rule="nonzero"/><path fill="#7764a6" d="M 465.960938 537.125 L 308.664062 537.125 C 304.300781 537.125 300.765625 533.59375 300.765625 529.230469 L 300.765625 520.46875 L 473.859375 520.46875 L 473.859375 529.230469 C 473.859375 533.59375 470.324219 537.125 465.960938 537.125 " fill-opacity="1" fill-rule="nonzero"/><path fill="#1e2156" d="M 362.570312 531.792969 L 357.511719 531.792969 L 357.511719 526.734375 L 362.570312 526.734375 L 362.570312 531.792969 " fill-opacity="1" fill-rule="nonzero"/><path fill="#1e2156" d="M 417.113281 532.296875 L 411.042969 532.296875 L 414.214844 526.226562 Z M 417.113281 532.296875 " fill-opacity="1" fill-rule="nonzero"/><path fill="#1e2156" d="M 389.988281 529.265625 C 389.988281 530.914062 388.652344 532.253906 386.996094 532.253906 C 385.34375 532.253906 384.003906 530.914062 384.003906 529.265625 C 384.003906 527.609375 385.34375 526.269531 386.996094 526.269531 C 388.652344 526.269531 389.988281 527.609375 389.988281 529.265625 " fill-opacity="1" fill-rule="nonzero"/><path fill="#1e2156" d="M 386.996094 525.785156 C 385.078125 525.785156 383.519531 527.34375 383.519531 529.265625 C 383.519531 531.179688 385.078125 532.738281 386.996094 532.738281 C 388.917969 532.738281 390.472656 531.179688 390.472656 529.265625 C 390.472656 527.34375 388.917969 525.785156 386.996094 525.785156 Z M 386.996094 533.054688 C 384.902344 533.054688 383.203125 531.351562 383.203125 529.265625 C 383.203125 527.171875 384.902344 525.46875 386.996094 525.46875 C 389.089844 525.46875 390.792969 527.171875 390.792969 529.265625 C 390.792969 531.351562 389.089844 533.054688 386.996094 533.054688 " fill-opacity="1" fill-rule="nonzero"/><path fill="#9283b8" d="M 454.203125 169.570312 L 320.648438 169.570312 C 311.921875 169.570312 304.84375 176.644531 304.84375 185.371094 L 304.84375 449.988281 C 304.84375 458.710938 311.921875 465.78125 320.648438 465.78125 L 454.203125 465.78125 C 462.929688 465.78125 470.007812 458.710938 470.007812 449.988281 L 470.007812 185.371094 C 470.007812 176.644531 462.929688 169.570312 454.203125 169.570312 " fill-opacity="1" fill-rule="nonzero"/><path fill="#1e1735" d="M 534.246094 132.210938 C 533.113281 131.875 532.75 131.226562 531.933594 130.964844 C 525.789062 129.011719 516.941406 132.953125 513.378906 135.289062 C 504.964844 140.800781 502.554688 150.679688 500.921875 157.378906 C 498.183594 168.597656 499.828125 177.664062 500.199219 179.566406 C 501.429688 185.910156 503.964844 198.96875 515.605469 206.632812 C 525.273438 212.992188 535.679688 211.984375 538.875 211.671875 C 542.722656 211.304688 548.292969 210.6875 553.851562 206.632812 C 555.671875 205.304688 560.785156 201.203125 563.117188 194.019531 C 565.613281 186.34375 564.503906 179.605469 562.859375 174.394531 C 561.066406 168.722656 556.910156 165.449219 553.445312 156.929688 C 551.070312 151.101562 553 142.664062 541.933594 134.914062 C 537.492188 131.800781 536.144531 132.773438 534.246094 132.210938 " fill-opacity="1" fill-rule="nonzero"/><path fill="#1e1735" d="M 556.421875 206.953125 C 558 205.898438 559.464844 204.640625 560.773438 203.234375 C 562.09375 201.832031 563.238281 200.253906 564.210938 198.570312 C 565.179688 196.886719 565.945312 195.054688 566.484375 193.183594 C 567.035156 191.3125 567.40625 189.382812 567.578125 187.425781 C 567.753906 185.472656 567.734375 183.496094 567.527344 181.535156 C 567.320312 179.582031 566.921875 177.652344 566.402344 175.769531 C 566.265625 175.300781 566.132812 174.828125 565.980469 174.367188 L 565.75 173.671875 C 565.675781 173.4375 565.574219 173.199219 565.488281 172.964844 C 565.140625 172.007812 564.6875 171.101562 564.21875 170.21875 C 563.246094 168.476562 562.117188 166.894531 561.039062 165.347656 C 559.957031 163.800781 558.914062 162.273438 557.976562 160.683594 C 557.734375 160.289062 557.511719 159.886719 557.285156 159.488281 L 556.945312 158.882812 L 556.628906 158.269531 C 556.414062 157.863281 556.203125 157.453125 556.007812 157.03125 L 555.710938 156.410156 L 555.558594 156.097656 C 555.515625 155.996094 555.476562 155.898438 555.433594 155.796875 C 554.753906 154.21875 554.363281 152.402344 553.902344 150.554688 C 553.675781 149.632812 553.441406 148.6875 553.15625 147.75 C 553.027344 147.28125 552.847656 146.816406 552.691406 146.351562 C 552.542969 145.882812 552.339844 145.429688 552.152344 144.972656 C 551.375 143.144531 550.335938 141.425781 549.097656 139.878906 C 548.425781 139.152344 547.804688 138.382812 547.054688 137.75 L 546.515625 137.25 C 546.335938 137.082031 546.15625 136.921875 545.957031 136.773438 L 544.804688 135.886719 C 544.425781 135.578125 544.011719 135.328125 543.605469 135.066406 L 542.382812 134.289062 C 541.550781 133.796875 540.695312 133.332031 539.792969 132.96875 C 538.890625 132.601562 537.933594 132.328125 536.960938 132.25 C 535.988281 132.160156 535.046875 132.328125 534.109375 132.15625 C 534.558594 132.316406 535.039062 132.390625 535.511719 132.441406 C 535.984375 132.492188 536.449219 132.546875 536.90625 132.648438 C 537.8125 132.835938 538.667969 133.195312 539.476562 133.640625 C 540.28125 134.089844 541.058594 134.601562 541.808594 135.15625 L 542.90625 136.023438 C 543.277344 136.304688 543.648438 136.585938 543.976562 136.914062 L 545.003906 137.847656 C 545.175781 137.996094 545.332031 138.167969 545.492188 138.339844 L 545.953125 138.84375 C 546.605469 139.492188 547.132812 140.242188 547.699219 140.953125 C 548.730469 142.445312 549.570312 144.050781 550.191406 145.75 C 550.816406 147.445312 551.222656 149.230469 551.597656 151.074219 C 551.976562 152.914062 552.328125 154.84375 553.085938 156.777344 C 553.136719 156.898438 553.175781 157.019531 553.226562 157.140625 L 553.375 157.46875 L 553.675781 158.132812 C 553.875 158.582031 554.089844 159.015625 554.3125 159.453125 L 554.636719 160.105469 L 554.980469 160.75 C 555.214844 161.175781 555.441406 161.605469 555.691406 162.023438 C 556.667969 163.707031 557.753906 165.320312 558.84375 166.882812 C 559.941406 168.4375 561.019531 169.945312 561.910156 171.507812 C 562.347656 172.289062 562.753906 173.082031 563.070312 173.902344 C 563.148438 174.109375 563.234375 174.304688 563.308594 174.523438 L 563.539062 175.175781 C 563.683594 175.609375 563.828125 176.042969 563.964844 176.484375 C 564.503906 178.238281 564.917969 180.023438 565.1875 181.828125 C 565.445312 183.636719 565.550781 185.46875 565.480469 187.292969 C 565.417969 189.121094 565.179688 190.945312 564.785156 192.746094 C 564.394531 194.542969 563.828125 196.292969 563.050781 197.96875 C 562.289062 199.65625 561.324219 201.257812 560.207031 202.757812 C 559.652344 203.519531 559.050781 204.238281 558.417969 204.9375 C 557.792969 205.640625 557.117188 206.308594 556.421875 206.953125 " fill-opacity="1" fill-rule="nonzero"/><path fill="#1e1735" d="M 512.398438 136.554688 C 510.941406 137.386719 509.519531 138.34375 508.28125 139.523438 C 507.039062 140.6875 505.894531 141.980469 504.921875 143.398438 C 502.945312 146.214844 501.546875 149.398438 500.449219 152.625 C 499.914062 154.242188 499.441406 155.878906 499.003906 157.503906 C 498.78125 158.308594 498.578125 159.148438 498.382812 159.980469 C 498.273438 160.394531 498.191406 160.816406 498.109375 161.234375 L 497.863281 162.5 C 497.277344 165.878906 496.992188 169.316406 497.066406 172.746094 C 497.101562 174.46875 497.21875 176.183594 497.429688 177.890625 C 497.535156 178.746094 497.664062 179.601562 497.828125 180.449219 L 497.949219 181.089844 L 498.074219 181.707031 C 498.15625 182.121094 498.246094 182.53125 498.339844 182.945312 C 499.0625 186.261719 500.015625 189.582031 501.394531 192.730469 C 502.757812 195.882812 504.539062 198.871094 506.769531 201.476562 C 508.996094 204.074219 511.652344 206.300781 514.621094 207.894531 C 511.980469 205.804688 509.667969 203.390625 507.808594 200.671875 C 505.933594 197.96875 504.46875 195.023438 503.347656 191.949219 C 502.785156 190.414062 502.316406 188.839844 501.898438 187.253906 C 501.492188 185.671875 501.136719 184.0625 500.832031 182.433594 L 500.605469 181.210938 L 500.488281 180.597656 L 500.382812 179.996094 C 500.25 179.199219 500.140625 178.394531 500.058594 177.582031 C 499.875 175.964844 499.773438 174.328125 499.746094 172.695312 C 499.722656 171.878906 499.734375 171.0625 499.742188 170.242188 C 499.75 169.832031 499.773438 169.421875 499.785156 169.015625 C 499.796875 168.605469 499.828125 168.199219 499.855469 167.792969 C 499.9375 166.15625 500.148438 164.53125 500.363281 162.910156 L 500.566406 161.699219 C 500.632812 161.292969 500.699219 160.890625 500.785156 160.488281 C 500.957031 159.6875 501.101562 158.886719 501.296875 158.066406 C 501.660156 156.441406 502.03125 154.828125 502.460938 153.238281 C 503.328125 150.0625 504.425781 146.957031 506.03125 144.09375 C 506.800781 142.640625 507.769531 141.308594 508.8125 140.03125 L 509.632812 139.09375 C 509.917969 138.792969 510.222656 138.515625 510.515625 138.21875 L 510.957031 137.773438 C 511.117188 137.636719 511.277344 137.503906 511.4375 137.371094 L 512.398438 136.554688 " fill-opacity="1" fill-rule="nonzero"/><path fill="#ec7d40" d="M 538.164062 505.714844 C 538.164062 505.714844 538.226562 513.125 536.859375 516.894531 C 535.496094 520.664062 532.699219 524.105469 532.699219 524.105469 C 532.699219 524.105469 546.613281 531.386719 547.652344 530.929688 C 548.691406 530.476562 553.246094 528.59375 553.246094 528.59375 C 553.246094 528.59375 553.113281 528.464844 553.503906 527.941406 C 553.890625 527.421875 553.441406 514.292969 553.632812 510.265625 C 553.832031 506.238281 538.164062 505.714844 538.164062 505.714844 " fill-opacity="1" fill-rule="nonzero"/><path fill="#312553" d="M 522.921875 310.40625 C 524.125 310.066406 533.679688 311.574219 553.703125 305.660156 C 562.824219 302.964844 561.59375 303.433594 562.453125 305.488281 C 563.308594 307.546875 570 329.835938 571.539062 344.0625 C 573.085938 358.292969 569.484375 391.039062 569.484375 391.039062 C 569.484375 391.039062 566.226562 425.496094 566.398438 431.839844 C 566.566406 438.183594 565.027344 477.785156 564.507812 484.984375 C 563.992188 492.1875 562.28125 513.789062 562.28125 513.789062 C 562.28125 513.789062 548.730469 515.675781 543.414062 514.472656 C 538.097656 513.273438 536.382812 512.074219 536.382812 512.074219 L 536.550781 482.242188 C 536.550781 482.242188 534.835938 446.070312 534.496094 441.953125 C 534.152344 437.839844 530.777344 419.160156 531.925781 409.207031 C 533.375 396.574219 529.402344 372.457031 528.097656 361.894531 C 527.679688 358.503906 523.519531 322.289062 523.519531 321.089844 C 523.519531 319.886719 522.921875 310.40625 522.921875 310.40625 " fill-opacity="1" fill-rule="nonzero"/><path fill="#312553" d="M 490.933594 310.972656 C 490.933594 310.972656 488.1875 324.347656 488.703125 334.976562 C 489.214844 345.605469 487.671875 356.234375 486.984375 360.691406 C 486.296875 365.148438 484.246094 393.609375 483.898438 404.40625 C 483.558594 415.207031 483.726562 435.097656 485.785156 438.867188 C 487.84375 442.636719 502.9375 458.585938 506.195312 461.5 C 509.457031 464.414062 531.578125 493.558594 532.609375 494.414062 C 533.636719 495.273438 540.15625 492.699219 545.128906 489.617188 C 550.101562 486.53125 553.1875 480.183594 553.1875 480.183594 C 553.1875 480.183594 536.210938 452.925781 529.519531 445.554688 C 522.832031 438.183594 516.34375 428.632812 515.453125 427.382812 C 513.230469 424.246094 518.769531 406.105469 522.144531 394.980469 C 525.441406 384.132812 530.378906 362.234375 534.664062 357.949219 C 538.957031 353.664062 530.550781 310.117188 530.550781 310.117188 L 490.933594 310.972656 " fill-opacity="1" fill-rule="nonzero"/><path fill="#1e1735" d="M 552.691406 479.679688 C 549.292969 475.433594 546.085938 471.070312 542.929688 466.679688 C 539.753906 462.300781 536.660156 457.863281 533.566406 453.445312 C 532.023438 451.230469 530.472656 449.027344 528.894531 446.863281 C 527.320312 444.707031 525.671875 442.515625 524.109375 440.308594 C 520.9375 435.910156 517.84375 431.460938 514.957031 426.878906 C 518.695312 430.855469 522.222656 434.960938 525.679688 439.117188 C 526.542969 440.152344 527.40625 441.195312 528.257812 442.242188 C 529.113281 443.289062 529.953125 444.332031 530.800781 445.417969 C 531.238281 445.949219 531.640625 446.5 532.050781 447.042969 C 532.453125 447.59375 532.871094 448.132812 533.265625 448.683594 C 534.058594 449.785156 534.855469 450.890625 535.632812 452 C 538.738281 456.449219 541.710938 460.976562 544.554688 465.59375 C 547.414062 470.199219 550.167969 474.863281 552.691406 479.679688 " fill-opacity="1" fill-rule="nonzero"/><path fill="#f79556" d="M 535.148438 490.203125 C 535.148438 490.203125 546.625 501.886719 548.441406 504.875 C 550.261719 507.859375 552.539062 512.503906 552.667969 512.417969 C 552.796875 512.328125 566.742188 505.199219 566.742188 505.199219 L 563.085938 493.78125 C 563.085938 493.78125 560.261719 491.285156 557.660156 488.382812 C 555.066406 485.484375 550.953125 478.648438 550.953125 478.648438 L 535.148438 490.203125 " fill-opacity="1" fill-rule="nonzero"/><path fill="#ae9ae3" d="M 553.140625 523.476562 C 553.3125 523.117188 553.835938 523.15625 553.941406 523.535156 C 554.160156 524.296875 554.496094 525.503906 554.972656 527.328125 C 555.96875 531.125 556.71875 539.222656 556.65625 540.78125 C 556.597656 542.335938 539.132812 549.949219 532.683594 551.105469 C 521.761719 553.066406 512.007812 550.878906 509.828125 550.007812 C 507.648438 549.136719 507.59375 544.820312 508.589844 542.703125 C 509.585938 540.585938 517.742188 536.664062 519.425781 536.105469 C 521.101562 535.546875 532.871094 523.785156 534.242188 520.984375 C 535.613281 518.183594 538.414062 519.800781 538.910156 520.175781 C 539.410156 520.542969 546.992188 525.644531 549.0625 526.085938 C 550.871094 526.46875 552.003906 525.839844 553.140625 523.476562 " fill-opacity="1" fill-rule="nonzero"/><path fill="#ffffff" d="M 538.820312 530.730469 C 538.253906 530.109375 537.605469 529.527344 536.945312 529.007812 C 536.613281 528.746094 536.277344 528.5 535.925781 528.273438 C 535.757812 528.144531 535.582031 528.039062 535.40625 527.925781 C 535.234375 527.816406 535.058594 527.707031 534.875 527.613281 C 534.160156 527.191406 533.351562 527.015625 532.675781 526.582031 C 531.984375 526.140625 531.277344 525.777344 530.53125 525.125 L 530.558594 524.953125 C 530.792969 524.878906 531.027344 524.835938 531.265625 524.800781 L 531.625 524.761719 C 531.742188 524.757812 531.855469 524.761719 531.972656 524.765625 C 532.210938 524.777344 532.445312 524.796875 532.675781 524.828125 C 532.90625 524.875 533.128906 524.933594 533.355469 524.996094 C 533.578125 525.058594 533.796875 525.144531 534 525.25 C 534.207031 525.363281 534.410156 525.476562 534.59375 525.613281 L 535.140625 526.039062 C 535.316406 526.183594 535.488281 526.335938 535.664062 526.480469 C 535.84375 526.617188 536.011719 526.773438 536.179688 526.925781 C 536.34375 527.082031 536.511719 527.226562 536.667969 527.394531 C 536.980469 527.714844 537.273438 528.054688 537.554688 528.398438 C 538.105469 529.109375 538.601562 529.828125 538.976562 530.652344 L 538.820312 530.730469 " fill-opacity="1" fill-rule="nonzero"/><path fill="#ffffff" d="M 535.539062 532.691406 C 535.039062 532.167969 534.464844 531.671875 533.886719 531.234375 C 533.597656 531.011719 533.304688 530.804688 532.996094 530.613281 C 532.851562 530.507812 532.695312 530.417969 532.546875 530.324219 C 532.394531 530.230469 532.242188 530.136719 532.085938 530.058594 C 531.777344 529.882812 531.441406 529.765625 531.113281 529.640625 C 530.957031 529.574219 530.789062 529.523438 530.636719 529.445312 C 530.484375 529.371094 530.339844 529.28125 530.1875 529.199219 C 529.601562 528.808594 529.007812 528.46875 528.375 527.839844 L 528.402344 527.675781 C 528.609375 527.585938 528.8125 527.539062 529.023438 527.496094 L 529.339844 527.445312 C 529.445312 527.4375 529.546875 527.4375 529.652344 527.4375 C 529.855469 527.441406 530.0625 527.453125 530.269531 527.476562 C 530.46875 527.511719 530.667969 527.5625 530.867188 527.613281 C 531.066406 527.664062 531.253906 527.738281 531.433594 527.832031 C 531.609375 527.925781 531.789062 528.027344 531.949219 528.148438 L 532.421875 528.53125 L 532.875 528.925781 C 533.027344 529.046875 533.171875 529.1875 533.316406 529.320312 C 533.457031 529.457031 533.605469 529.589844 533.738281 529.734375 C 534.007812 530.019531 534.257812 530.320312 534.5 530.625 C 534.964844 531.25 535.390625 531.886719 535.699219 532.609375 L 535.539062 532.691406 " fill-opacity="1" fill-rule="nonzero"/><path fill="#ffffff" d="M 532.824219 535.40625 C 532.320312 534.882812 531.75 534.386719 531.171875 533.949219 C 530.878906 533.730469 530.585938 533.519531 530.28125 533.328125 C 530.136719 533.222656 529.980469 533.132812 529.832031 533.039062 C 529.675781 532.945312 529.523438 532.851562 529.367188 532.777344 C 529.0625 532.601562 528.722656 532.480469 528.398438 532.355469 C 528.238281 532.289062 528.070312 532.242188 527.917969 532.160156 C 527.769531 532.085938 527.621094 531.996094 527.46875 531.914062 C 526.886719 531.523438 526.292969 531.183594 525.652344 530.558594 L 525.6875 530.390625 C 525.894531 530.300781 526.097656 530.257812 526.308594 530.210938 L 526.621094 530.167969 C 526.726562 530.152344 526.828125 530.15625 526.933594 530.15625 C 527.136719 530.15625 527.34375 530.171875 527.554688 530.195312 C 527.753906 530.226562 527.953125 530.277344 528.152344 530.328125 C 528.347656 530.378906 528.535156 530.453125 528.714844 530.546875 C 528.894531 530.640625 529.070312 530.742188 529.230469 530.867188 L 529.703125 531.25 L 530.15625 531.640625 C 530.308594 531.769531 530.457031 531.902344 530.597656 532.035156 C 530.742188 532.175781 530.886719 532.304688 531.023438 532.449219 C 531.289062 532.734375 531.542969 533.035156 531.78125 533.339844 C 532.25 533.96875 532.667969 534.601562 532.976562 535.328125 L 532.824219 535.40625 " fill-opacity="1" fill-rule="nonzero"/><path fill="#ffffff" d="M 530.105469 538.121094 C 529.601562 537.597656 529.03125 537.101562 528.457031 536.664062 C 528.164062 536.445312 527.867188 536.234375 527.566406 536.042969 C 527.417969 535.9375 527.265625 535.847656 527.113281 535.753906 C 526.960938 535.660156 526.808594 535.574219 526.648438 535.492188 C 526.339844 535.316406 526.007812 535.199219 525.683594 535.074219 C 525.519531 535.007812 525.351562 534.957031 525.203125 534.878906 C 525.046875 534.800781 524.902344 534.714844 524.753906 534.628906 C 524.167969 534.238281 523.570312 533.902344 522.9375 533.277344 L 522.964844 533.105469 C 523.171875 533.019531 523.378906 532.976562 523.59375 532.929688 L 523.90625 532.882812 C 524.011719 532.871094 524.113281 532.875 524.214844 532.875 C 524.421875 532.875 524.628906 532.890625 524.832031 532.910156 C 525.035156 532.945312 525.234375 532.992188 525.429688 533.042969 C 525.628906 533.09375 525.816406 533.171875 525.996094 533.261719 C 526.179688 533.355469 526.351562 533.457031 526.515625 533.585938 L 526.984375 533.96875 L 527.4375 534.355469 C 527.59375 534.484375 527.738281 534.617188 527.882812 534.753906 C 528.023438 534.890625 528.171875 535.019531 528.300781 535.164062 C 528.574219 535.449219 528.820312 535.75 529.066406 536.054688 C 529.535156 536.683594 529.953125 537.316406 530.261719 538.042969 L 530.105469 538.121094 " fill-opacity="1" fill-rule="nonzero"/><path fill="#ffffff" d="M 555.226562 535.828125 C 551.792969 537.8125 548.265625 539.597656 544.671875 541.261719 C 542.878906 542.105469 541.066406 542.902344 539.222656 543.648438 C 538.300781 544.019531 537.375 544.375 536.425781 544.710938 C 535.484375 545.046875 534.5 545.335938 533.480469 545.5625 C 531.464844 545.964844 529.464844 546.117188 527.46875 546.191406 C 525.472656 546.253906 523.476562 546.234375 521.492188 546.117188 C 519.503906 546.015625 517.523438 545.8125 515.554688 545.523438 C 515.066406 545.445312 514.578125 545.367188 514.085938 545.269531 C 513.597656 545.183594 513.109375 545.097656 512.625 544.972656 C 511.652344 544.761719 510.6875 544.472656 509.769531 544.109375 C 511.71875 544.480469 513.679688 544.597656 515.636719 544.683594 C 516.128906 544.707031 516.617188 544.726562 517.109375 544.734375 C 517.601562 544.746094 518.089844 544.761719 518.582031 544.761719 L 520.054688 544.773438 L 521.523438 544.769531 C 523.480469 544.734375 525.4375 544.683594 527.386719 544.554688 C 529.324219 544.425781 531.277344 544.25 533.132812 543.871094 C 534.042969 543.679688 534.953125 543.417969 535.878906 543.101562 C 536.796875 542.800781 537.714844 542.457031 538.632812 542.125 C 540.476562 541.449219 542.304688 540.730469 544.148438 540.03125 C 547.820312 538.605469 551.492188 537.160156 555.226562 535.828125 " fill-opacity="1" fill-rule="nonzero"/><path fill="#ae9ae3" d="M 561.832031 492.726562 C 561.570312 492.210938 561.988281 491.613281 562.558594 491.6875 C 564.511719 491.941406 567.902344 492.402344 569.714844 492.828125 C 572.363281 493.445312 576.550781 494.699219 577.308594 496.707031 C 578.539062 499.972656 578.097656 506.75 578.273438 510.808594 C 578.449219 514.867188 580.382812 522.480469 580.824219 527.242188 C 581.265625 532.007812 580.140625 539.136719 577.140625 545.574219 C 574.140625 552.019531 573.085938 552.367188 571.5 552.632812 C 569.910156 552.902344 566.976562 552.195312 565.300781 550.695312 C 563.628906 549.195312 563.007812 539.492188 563.007812 536.492188 C 563.007812 533.492188 550.742188 511.703125 550.566406 511.085938 C 550.390625 510.46875 558.773438 507.558594 561.066406 504.207031 C 563.105469 501.222656 563.609375 496.214844 561.832031 492.726562 " fill-opacity="1" fill-rule="nonzero"/><path fill="#ffffff" d="M 553.835938 517.320312 C 553.765625 516.824219 553.882812 516.371094 554.046875 515.949219 C 554.128906 515.730469 554.238281 515.539062 554.347656 515.339844 C 554.464844 515.15625 554.589844 514.96875 554.730469 514.792969 C 554.871094 514.628906 555.023438 514.46875 555.183594 514.320312 C 555.351562 514.183594 555.535156 514.0625 555.714844 513.945312 C 556.097656 513.730469 556.476562 513.527344 556.855469 513.339844 C 557.226562 513.136719 557.613281 512.972656 557.996094 512.804688 C 558.382812 512.636719 558.78125 512.515625 559.171875 512.375 C 559.570312 512.261719 559.964844 512.148438 560.363281 512.042969 C 560.765625 511.957031 561.167969 511.875 561.566406 511.796875 L 561.621094 511.964844 C 561.269531 512.164062 560.914062 512.359375 560.5625 512.550781 L 559.53125 513.164062 C 559.203125 513.386719 558.867188 513.585938 558.546875 513.820312 C 558.226562 514.046875 557.910156 514.265625 557.613281 514.511719 C 557.304688 514.738281 557.042969 515.03125 556.777344 515.300781 C 556.648438 515.433594 556.523438 515.570312 556.375 515.6875 C 556.242188 515.8125 556.101562 515.925781 555.949219 516.035156 C 555.347656 516.480469 554.746094 516.882812 554 517.378906 L 553.835938 517.320312 " fill-opacity="1" fill-rule="nonzero"/><path fill="#ffffff" d="M 555.6875 520.9375 C 555.621094 520.441406 555.738281 519.984375 555.902344 519.566406 C 555.976562 519.34375 556.09375 519.160156 556.203125 518.957031 C 556.316406 518.769531 556.445312 518.585938 556.578125 518.410156 C 556.722656 518.242188 556.871094 518.082031 557.039062 517.9375 C 557.207031 517.800781 557.390625 517.679688 557.566406 517.5625 C 557.949219 517.351562 558.328125 517.144531 558.707031 516.960938 C 559.082031 516.757812 559.46875 516.589844 559.847656 516.417969 C 560.234375 516.257812 560.632812 516.132812 561.019531 515.992188 C 561.421875 515.875 561.816406 515.765625 562.214844 515.660156 C 562.617188 515.570312 563.019531 515.492188 563.417969 515.414062 L 563.476562 515.582031 C 563.117188 515.78125 562.769531 515.976562 562.414062 516.167969 L 561.386719 516.78125 C 561.058594 517 560.714844 517.203125 560.402344 517.433594 C 560.082031 517.660156 559.761719 517.882812 559.46875 518.125 C 559.15625 518.359375 558.898438 518.644531 558.632812 518.914062 C 558.503906 519.054688 558.375 519.1875 558.230469 519.304688 C 558.09375 519.425781 557.953125 519.542969 557.800781 519.65625 C 557.203125 520.097656 556.597656 520.5 555.851562 520.996094 L 555.6875 520.9375 " fill-opacity="1" fill-rule="nonzero"/><path fill="#ffffff" d="M 557.542969 524.550781 C 557.472656 524.0625 557.59375 523.601562 557.753906 523.183594 C 557.832031 522.964844 557.945312 522.773438 558.050781 522.574219 C 558.167969 522.386719 558.300781 522.203125 558.433594 522.027344 C 558.578125 521.863281 558.726562 521.699219 558.890625 521.554688 C 559.054688 521.417969 559.238281 521.296875 559.421875 521.179688 C 559.804688 520.96875 560.183594 520.765625 560.5625 520.578125 C 560.933594 520.375 561.320312 520.203125 561.703125 520.035156 C 562.085938 519.875 562.488281 519.753906 562.875 519.605469 C 563.273438 519.492188 563.671875 519.378906 564.066406 519.277344 C 564.46875 519.1875 564.871094 519.105469 565.273438 519.03125 L 565.332031 519.195312 C 564.972656 519.398438 564.621094 519.59375 564.269531 519.785156 L 563.242188 520.398438 C 562.90625 520.617188 562.570312 520.816406 562.253906 521.054688 C 561.933594 521.277344 561.613281 521.496094 561.316406 521.742188 C 561.007812 521.976562 560.75 522.265625 560.484375 522.53125 C 560.355469 522.671875 560.226562 522.804688 560.082031 522.921875 C 559.945312 523.042969 559.808594 523.164062 559.652344 523.269531 C 559.054688 523.710938 558.449219 524.117188 557.707031 524.613281 L 557.542969 524.550781 " fill-opacity="1" fill-rule="nonzero"/><path fill="#ffffff" d="M 559.394531 528.171875 C 559.328125 527.679688 559.441406 527.21875 559.605469 526.796875 C 559.6875 526.582031 559.796875 526.390625 559.90625 526.191406 C 560.023438 526.003906 560.148438 525.820312 560.289062 525.644531 C 560.429688 525.480469 560.582031 525.316406 560.742188 525.171875 C 560.910156 525.03125 561.09375 524.914062 561.277344 524.792969 C 561.65625 524.585938 562.039062 524.382812 562.414062 524.191406 C 562.785156 523.988281 563.171875 523.820312 563.554688 523.65625 C 563.941406 523.488281 564.339844 523.367188 564.730469 523.222656 C 565.128906 523.109375 565.523438 522.996094 565.921875 522.890625 C 566.324219 522.804688 566.726562 522.722656 567.128906 522.648438 L 567.183594 522.8125 C 566.828125 523.015625 566.472656 523.210938 566.121094 523.398438 L 565.089844 524.011719 C 564.761719 524.234375 564.421875 524.433594 564.105469 524.671875 C 563.785156 524.894531 563.46875 525.113281 563.171875 525.363281 C 562.863281 525.59375 562.601562 525.882812 562.339844 526.148438 C 562.207031 526.289062 562.078125 526.421875 561.933594 526.535156 C 561.800781 526.664062 561.660156 526.78125 561.507812 526.886719 C 560.90625 527.328125 560.300781 527.734375 559.5625 528.226562 L 559.394531 528.171875 " fill-opacity="1" fill-rule="nonzero"/><path fill="#ffffff" d="M 572.972656 496.453125 C 572.992188 498.71875 573.078125 500.976562 573.242188 503.21875 C 573.394531 505.464844 573.621094 507.707031 573.9375 509.917969 C 574.277344 512.125 574.679688 514.347656 575.070312 516.582031 C 575.441406 518.820312 575.757812 521.082031 575.960938 523.367188 C 576.132812 525.648438 576.183594 527.964844 575.992188 530.269531 C 575.789062 532.570312 575.34375 534.886719 574.625 537.058594 C 573.9375 539.246094 573.085938 541.386719 572.015625 543.414062 C 571.484375 544.425781 570.894531 545.410156 570.242188 546.351562 C 569.59375 547.289062 568.890625 548.195312 568.0625 548.976562 C 568.414062 548.53125 568.714844 548.050781 569.007812 547.570312 C 569.296875 547.089844 569.582031 546.601562 569.832031 546.101562 C 570.34375 545.105469 570.832031 544.09375 571.238281 543.050781 C 571.464844 542.535156 571.652344 542.007812 571.855469 541.492188 C 572.03125 540.960938 572.226562 540.4375 572.390625 539.90625 C 572.726562 538.839844 573.050781 537.773438 573.316406 536.6875 C 574.472656 532.394531 574.613281 527.945312 574.222656 523.503906 C 573.902344 519.054688 573.011719 514.632812 572.59375 510.074219 C 572.488281 508.929688 572.429688 507.796875 572.398438 506.65625 C 572.375 505.515625 572.367188 504.378906 572.390625 503.242188 C 572.46875 500.96875 572.609375 498.695312 572.972656 496.453125 " fill-opacity="1" fill-rule="nonzero"/><path fill="#ffffff" d="M 497.109375 196.789062 C 495.769531 196.664062 490.140625 197.605469 485.582031 207.453125 C 481.023438 217.296875 470.566406 251.019531 469.242188 258.808594 C 467.917969 266.597656 468.316406 272.992188 473.363281 277.566406 C 475.675781 279.667969 485.269531 283.3125 490.121094 271.554688 C 494.976562 259.796875 504.929688 197.503906 497.109375 196.789062 " fill-opacity="1" fill-rule="nonzero"/><path fill="#ffffff" d="M 563.195312 205.105469 C 563.195312 205.105469 570.59375 206.058594 573.269531 212.664062 C 575.945312 219.273438 580.425781 237.050781 582.472656 245.074219 C 584.515625 253.097656 589.714844 261.121094 587.828125 270.246094 C 585.9375 279.378906 585.304688 282.363281 579.324219 283.9375 C 573.34375 285.511719 567.660156 271.058594 562.160156 255.617188 C 557.351562 242.140625 560.042969 210.292969 563.195312 205.105469 " fill-opacity="1" fill-rule="nonzero"/><path fill="#ffffff" d="M 533.324219 317.09375 C 547.96875 315.203125 562.734375 310.039062 563.382812 306.988281 C 564.039062 303.9375 558.375 300.640625 558.824219 293.464844 C 561.222656 255.542969 569.746094 207.050781 566.636719 206.148438 C 554.875 202.738281 543.855469 194.238281 531.832031 193.113281 C 520.867188 192.089844 516.460938 195.441406 509.046875 195.875 C 501.636719 196.316406 496.535156 196.027344 495.21875 197.253906 C 491.707031 200.53125 489.128906 223.363281 490.824219 245.53125 C 491.640625 256.214844 496.058594 275.949219 494.796875 293.617188 C 494.113281 303.136719 489.613281 310.957031 489.75 313.859375 C 489.949219 318.035156 509.761719 320.136719 533.324219 317.09375 " fill-opacity="1" fill-rule="nonzero"/><path fill="#ec7d40" d="M 544.523438 153.75 C 542.558594 166.179688 542.066406 168.761719 541.753906 177.132812 C 541.316406 188.828125 541.945312 191.707031 541.46875 195.917969 C 540.976562 200.292969 535.941406 203.074219 529.410156 202.457031 C 524.859375 202.03125 520.78125 199.542969 520.679688 195.648438 C 520.515625 189.257812 519.886719 181.882812 518.359375 174.402344 C 516.664062 166.097656 516.070312 160.675781 518.636719 156.628906 C 523.5 148.964844 545.378906 148.300781 544.523438 153.75 " fill-opacity="1" fill-rule="nonzero"/><path fill="#f79556" d="M 510.128906 146.699219 C 508.121094 151.695312 508.609375 154.628906 509.074219 156.699219 C 509.285156 157.664062 509.738281 159.109375 509.605469 161.210938 C 509.535156 162.421875 509.300781 163.253906 509.167969 163.828125 C 508.484375 166.753906 508.644531 169.410156 509.03125 171.203125 C 509.789062 174.761719 514.453125 185.632812 518.050781 187.726562 C 519.527344 188.585938 520.953125 188.792969 522.109375 188.859375 C 524.757812 189.019531 526.9375 188.355469 528.28125 187.824219 C 536.648438 184.523438 540.277344 175.464844 540.703125 174.347656 C 541.476562 172.335938 541.789062 170.769531 542.066406 169.335938 C 543.316406 162.871094 547.949219 155.511719 542.949219 146.304688 C 541.488281 143.625 533.261719 133.316406 518.144531 138.695312 C 514.585938 139.964844 511.6875 142.8125 510.128906 146.699219 " fill-opacity="1" fill-rule="nonzero"/><path fill="#1e1735" d="M 533.003906 135.824219 C 533.003906 135.824219 532.769531 135.875 532.546875 135.96875 C 531.105469 136.570312 529.625 139.074219 529.046875 142.292969 C 528.757812 143.882812 528.722656 145.0625 528.863281 146.578125 C 529.535156 153.765625 538.261719 154.617188 540.480469 161.636719 C 542.355469 167.566406 544.660156 164.570312 545.480469 162.285156 C 549.035156 152.433594 550.496094 144.625 536.832031 136.484375 C 535.96875 135.972656 534.03125 135.589844 533.003906 135.824219 " fill-opacity="1" fill-rule="nonzero"/><path fill="#1e1735" d="M 530.140625 134.785156 C 528.691406 134.160156 519.683594 130.992188 510.476562 140.753906 C 505.328125 146.207031 505.976562 154.015625 506.175781 156.976562 C 506.328125 159.285156 507.867188 160.742188 508.136719 160.757812 C 508.628906 160.785156 505.300781 152.289062 522.675781 147.289062 C 527.609375 145.871094 529.363281 142.5625 529.761719 142.160156 C 531.125 140.785156 533.03125 138 532.058594 136.183594 C 531.660156 135.441406 530.921875 135.125 530.140625 134.785156 " fill-opacity="1" fill-rule="nonzero"/><path fill="#f79556" d="M 540.546875 160.886719 C 540.96875 160.558594 542.90625 159.046875 544.480469 159.746094 C 545.988281 160.414062 546.820312 162.1875 546.96875 163.585938 C 547.285156 166.503906 545.960938 170.953125 543.296875 172.9375 C 542.765625 173.335938 541.707031 174.105469 540.480469 173.878906 C 539.328125 173.664062 538.640625 172.683594 538.386719 172.320312 C 536.339844 169.417969 537.15625 163.53125 540.546875 160.886719 " fill-opacity="1" fill-rule="nonzero"/><path fill="#d65b5b" d="M 525.808594 179.464844 C 525.929688 179.289062 525.828125 179.042969 525.617188 179.015625 C 524.710938 178.878906 522.511719 178.597656 519.972656 178.628906 C 518.238281 178.648438 516.585938 178.953125 515.898438 179.097656 C 515.714844 179.132812 515.621094 179.332031 515.699219 179.5 C 516.101562 180.367188 517.457031 182.644531 520.550781 182.578125 C 523.335938 182.511719 525.164062 180.347656 525.808594 179.464844 " fill-opacity="1" fill-rule="nonzero"/><path fill="#1e1735" d="M 515.488281 159.453125 C 515.316406 158.921875 515.019531 158.480469 514.671875 158.085938 C 514.320312 157.6875 513.902344 157.355469 513.445312 157.078125 C 512.527344 156.515625 511.382812 156.441406 510.335938 156.480469 C 510.070312 156.492188 509.8125 156.496094 509.550781 156.542969 L 509.160156 156.597656 C 509.027344 156.621094 508.882812 156.660156 508.746094 156.691406 C 508.203125 156.859375 507.730469 157.136719 507.316406 157.445312 C 506.492188 158.085938 505.90625 158.890625 505.3125 159.609375 L 505.425781 159.757812 C 505.855469 159.488281 506.214844 159.179688 506.605469 158.910156 C 506.988281 158.644531 507.386719 158.398438 507.789062 158.21875 C 508.191406 158.03125 508.597656 157.90625 508.996094 157.878906 L 509.289062 157.863281 L 509.621094 157.875 C 509.835938 157.871094 510.050781 157.90625 510.261719 157.929688 C 510.472656 157.957031 510.683594 158.019531 510.890625 158.070312 C 511.09375 158.148438 511.292969 158.203125 511.488281 158.296875 C 511.882812 158.453125 512.269531 158.605469 512.679688 158.726562 L 513.945312 159.144531 C 514.386719 159.289062 514.839844 159.441406 515.355469 159.582031 L 515.488281 159.453125 " fill-opacity="1" fill-rule="nonzero"/><path fill="#1e1735" d="M 535.699219 157.613281 C 534.769531 156.824219 533.675781 156.238281 532.507812 155.792969 C 531.332031 155.363281 530.039062 155.164062 528.730469 155.222656 C 528.402344 155.226562 528.078125 155.277344 527.75 155.292969 C 527.417969 155.335938 527.085938 155.386719 526.757812 155.445312 C 526.097656 155.582031 525.472656 155.855469 524.929688 156.246094 C 523.847656 157.027344 522.984375 158.117188 522.71875 159.460938 L 522.898438 159.609375 C 524.140625 159.132812 525.113281 158.675781 526.089844 158.292969 C 526.574219 158.097656 527.027344 157.886719 527.496094 157.652344 C 527.726562 157.546875 527.96875 157.425781 528.210938 157.324219 C 528.460938 157.246094 528.710938 157.148438 528.972656 157.089844 C 529.488281 156.980469 530.023438 156.890625 530.570312 156.882812 C 531.121094 156.851562 531.675781 156.875 532.234375 156.941406 C 533.359375 157.046875 534.480469 157.367188 535.570312 157.8125 L 535.699219 157.613281 " fill-opacity="1" fill-rule="nonzero"/><path fill="#e6e6e6" d="M 531.15625 163.410156 C 531.125 163.722656 530.09375 164.554688 527.304688 164.253906 C 526.070312 164.121094 524.859375 163.679688 524.925781 163.058594 C 524.992188 162.46875 525.902344 161.464844 526.984375 161.398438 C 528.878906 161.289062 531.226562 162.792969 531.15625 163.410156 " fill-opacity="1" fill-rule="nonzero"/><path fill="#1e1735" d="M 529.074219 162.484375 C 528.542969 160.800781 525.578125 161.167969 526.007812 163.425781 C 526.441406 165.6875 529.933594 165.1875 529.074219 162.484375 " fill-opacity="1" fill-rule="nonzero"/><path fill="#1e1735" d="M 524.597656 163.496094 C 524.949219 163.195312 525.285156 162.960938 525.625 162.828125 C 525.957031 162.695312 526.289062 162.65625 526.625 162.660156 C 527.300781 162.671875 528.035156 162.863281 528.8125 163.050781 C 529.589844 163.246094 530.40625 163.457031 531.296875 163.554688 C 531.742188 163.597656 532.210938 163.613281 532.691406 163.523438 C 532.933594 163.484375 533.179688 163.398438 533.398438 163.273438 C 533.617188 163.144531 533.796875 162.949219 533.875 162.730469 C 533.65625 162.8125 533.457031 162.835938 533.269531 162.820312 C 533.074219 162.792969 532.902344 162.757812 532.71875 162.691406 C 532.355469 162.574219 531.992188 162.414062 531.621094 162.257812 C 530.871094 161.945312 530.085938 161.617188 529.222656 161.402344 C 528.367188 161.199219 527.398438 161.0625 526.398438 161.351562 C 525.90625 161.496094 525.425781 161.78125 525.105469 162.179688 C 524.785156 162.578125 524.617188 163.039062 524.597656 163.496094 " fill-opacity="1" fill-rule="nonzero"/><path fill="#e6e6e6" d="M 514.71875 163.78125 C 514.691406 164.058594 513.890625 164.816406 511.757812 164.589844 C 510.8125 164.488281 510.398438 163.96875 510.460938 163.414062 C 510.519531 162.882812 510.722656 162.105469 511.550781 162.03125 C 513.003906 161.90625 514.78125 163.222656 514.71875 163.78125 " fill-opacity="1" fill-rule="nonzero"/><path fill="#1e1735" d="M 512.996094 163.066406 C 512.542969 161.648438 510.046875 161.957031 510.414062 163.859375 C 510.777344 165.765625 513.71875 165.339844 512.996094 163.066406 " fill-opacity="1" fill-rule="nonzero"/><path fill="#1e1735" d="M 509.03125 163.53125 C 509.359375 163.378906 509.640625 163.21875 509.925781 163.117188 C 510.199219 163.015625 510.457031 162.964844 510.695312 162.964844 C 511.160156 162.957031 511.617188 163.109375 512.160156 163.320312 C 512.703125 163.53125 513.292969 163.804688 513.996094 163.960938 C 514.34375 164.03125 514.730469 164.082031 515.128906 164.003906 C 515.523438 163.929688 515.898438 163.703125 516.0625 163.378906 C 515.699219 163.429688 515.414062 163.371094 515.164062 163.261719 C 514.914062 163.160156 514.675781 163.007812 514.421875 162.851562 C 513.921875 162.535156 513.378906 162.175781 512.714844 161.914062 C 512.378906 161.785156 512.019531 161.679688 511.617188 161.644531 C 511.222656 161.609375 510.785156 161.65625 510.394531 161.816406 C 510.011719 161.976562 509.683594 162.242188 509.460938 162.542969 C 509.238281 162.847656 509.097656 163.183594 509.03125 163.53125 " fill-opacity="1" fill-rule="nonzero"/><path fill="#ec7d40" d="M 516.976562 240.394531 C 516.976562 240.394531 520.613281 239.265625 521.4375 240.273438 C 522.261719 241.28125 522.324219 242.105469 520.460938 244.246094 C 518.59375 246.382812 517.433594 246.53125 517.433594 246.53125 L 516.976562 240.394531 " fill-opacity="1" fill-rule="nonzero"/><path fill="#ec7d40" d="M 504.039062 258.542969 C 504.039062 258.542969 504.515625 260.207031 504.515625 261.25 C 504.515625 262.296875 505.230469 263.472656 502.332031 263.898438 C 499.433594 264.324219 496.488281 256.882812 496.441406 256.550781 C 496.390625 256.214844 493.539062 250.660156 496.105469 249.089844 C 498.671875 247.519531 503.472656 256.171875 504.039062 258.542969 " fill-opacity="1" fill-rule="nonzero"/><path fill="#ec7d40" d="M 501.753906 263.164062 C 501.660156 263.441406 493.710938 271.230469 491.648438 272.964844 C 488.855469 275.316406 483.511719 276.707031 478.550781 276.988281 C 473.59375 277.265625 470.621094 272.761719 470.429688 269.320312 C 470.226562 265.671875 473.296875 260.382812 479.957031 259.503906 C 484.261719 258.9375 486.039062 260.0625 491.460938 256.789062 C 495.089844 254.601562 495.671875 253.515625 495.671875 253.515625 L 501.753906 263.164062 " fill-opacity="1" fill-rule="nonzero"/><path fill="#ffffff" d="M 486.757812 257.738281 C 486.511719 257.175781 484.882812 255.832031 482.121094 255.785156 C 478.839844 255.722656 474.339844 255.859375 470.855469 260.125 C 468.375 263.171875 468.214844 268.011719 468.617188 270.195312 C 469.269531 273.753906 471.359375 278.703125 476.535156 279.769531 C 481.171875 280.730469 484.824219 279.566406 486.789062 277.414062 C 487.515625 276.621094 488.011719 275.582031 487.398438 276.003906 C 486.789062 276.421875 486.171875 277.890625 484.546875 277.257812 C 482.859375 276.609375 480.710938 273.351562 481.972656 264.730469 C 482.636719 260.210938 484.878906 256.28125 485.71875 258.011719 C 486.296875 259.199219 487.152344 258.644531 486.757812 257.738281 " fill-opacity="1" fill-rule="nonzero"/><path fill="#1e1735" d="M 542.054688 290.503906 L 569.917969 226.128906 L 585.6875 232.273438 L 559.699219 291.664062 L 542.054688 290.503906 " fill-opacity="1" fill-rule="nonzero"/><path fill="#e30613" d="M 519.898438 259.773438 L 505.101562 263.511719 C 504.730469 263.605469 504.34375 263.402344 504.21875 263.039062 L 495.152344 236.972656 L 516.023438 231.691406 L 520.449219 258.933594 C 520.507812 259.3125 520.269531 259.675781 519.898438 259.773438 " fill-opacity="1" fill-rule="nonzero"/><path fill="#1e1735" d="M 517.484375 232.144531 L 494.082031 238.0625 L 493.855469 235.566406 C 493.839844 235.40625 493.941406 235.265625 494.097656 235.226562 L 516.121094 229.65625 C 516.273438 229.613281 516.433594 229.695312 516.496094 229.839844 L 517.484375 232.144531 " fill-opacity="1" fill-rule="nonzero"/><path fill="#1e1735" d="M 515.09375 230.070312 L 495.195312 235.101562 L 494.972656 232.65625 C 494.960938 232.46875 495.078125 232.300781 495.257812 232.253906 L 513.6875 227.59375 C 513.867188 227.550781 514.054688 227.640625 514.128906 227.8125 L 515.09375 230.070312 " fill-opacity="1" fill-rule="nonzero"/><path fill="#f79556" d="M 495.265625 251.078125 C 495.265625 251.078125 493.871094 248.285156 498.105469 247.417969 C 502.347656 246.550781 506.59375 245.03125 508.414062 244.867188 C 510.488281 244.671875 511.210938 245.730469 511.40625 246.359375 C 511.792969 247.609375 510.96875 248.382812 510.246094 248.765625 C 509.527344 249.152344 511.261719 248.707031 511.933594 249.679688 C 512.609375 250.660156 512.558594 251.65625 510.921875 252.714844 C 509.285156 253.773438 510.875 253.242188 511.695312 254.109375 C 512.511719 254.980469 512.414062 256.324219 510.921875 257.386719 C 510.921875 257.386719 504.902344 259.585938 503.40625 259.972656 C 501.914062 260.359375 501.671875 260.402344 500.46875 260.070312 C 499.265625 259.730469 498.878906 258.761719 498.683594 257.757812 C 498.421875 256.386719 497.433594 256.5 496.707031 255.394531 C 495.988281 254.289062 496.039062 252.957031 496.085938 252.519531 C 496.136719 252.089844 495.75 252.328125 495.265625 251.078125 " fill-opacity="1" fill-rule="nonzero"/><path fill="#f79556" d="M 498.230469 245.402344 C 498.230469 245.402344 500.019531 250.589844 499.929688 250.589844 C 499.84375 250.589844 498.570312 251.648438 497.394531 250.519531 C 496.21875 249.390625 493.804688 246.757812 493.5625 245.515625 C 493.316406 244.273438 493.582031 242.996094 494.601562 242.351562 C 495.6875 241.664062 499.746094 239.589844 501.605469 239.285156 C 502.902344 239.070312 503.421875 239.332031 503.730469 239.632812 C 503.800781 239.699219 503.972656 239.90625 504.042969 240.082031 C 504.226562 240.523438 504.429688 241.519531 503.09375 242.476562 C 501.132812 243.878906 498.230469 245.402344 498.230469 245.402344 " fill-opacity="1" fill-rule="nonzero"/><path fill="#ec7d40" d="M 509.25 249.125 C 508.53125 249.726562 507.707031 250.171875 506.875 250.566406 C 506.039062 250.953125 505.171875 251.265625 504.292969 251.515625 C 503.40625 251.769531 502.507812 251.964844 501.597656 252.082031 C 500.683594 252.199219 499.761719 252.257812 498.832031 252.1875 C 499.683594 251.800781 500.546875 251.515625 501.40625 251.230469 C 502.265625 250.960938 503.125 250.695312 503.988281 250.457031 C 505.714844 249.96875 507.425781 249.5 509.25 249.125 " fill-opacity="1" fill-rule="nonzero"/><path fill="#ec7d40" d="M 509.570312 253.527344 C 508.953125 254.0625 508.242188 254.433594 507.519531 254.765625 C 506.792969 255.082031 506.039062 255.328125 505.28125 255.527344 C 504.511719 255.71875 503.734375 255.855469 502.949219 255.921875 C 502.160156 255.992188 501.367188 256.003906 500.5625 255.890625 C 501.300781 255.542969 502.042969 255.304688 502.78125 255.070312 C 503.523438 254.839844 504.265625 254.636719 505.007812 254.457031 C 505.753906 254.265625 506.5 254.097656 507.253906 253.9375 C 508.011719 253.785156 508.769531 253.636719 509.570312 253.527344 " fill-opacity="1" fill-rule="nonzero"/><path fill="#1e1735" d="M 532.355469 398.558594 C 531.417969 394.15625 530.628906 389.765625 529.863281 385.363281 C 529.109375 380.964844 528.394531 376.5625 527.800781 372.121094 C 527.503906 369.894531 527.285156 367.671875 527.070312 365.445312 C 526.863281 363.222656 526.671875 360.996094 526.511719 358.757812 C 526.199219 354.296875 525.964844 349.824219 525.988281 345.324219 C 527.03125 349.703125 527.820312 354.109375 528.527344 358.523438 C 528.882812 360.726562 529.199219 362.9375 529.5 365.148438 L 530.363281 371.785156 C 530.949219 376.203125 531.492188 380.644531 531.871094 385.109375 C 532.242188 389.570312 532.480469 394.058594 532.355469 398.558594 " fill-opacity="1" fill-rule="nonzero"/><path fill="#7764a6" d="M 542.632812 291.785156 L 571.425781 225.386719 L 587.195312 231.535156 L 560.273438 292.949219 L 542.632812 291.785156 " fill-opacity="1" fill-rule="nonzero"/><path fill="#f79556" d="M 564.792969 275.511719 C 564.585938 275.429688 562.5625 274.964844 560.332031 276.007812 C 558.105469 277.046875 556.507812 278.148438 554.980469 278.410156 C 553.457031 278.667969 552.234375 278.410156 550.855469 277.515625 C 549.484375 276.625 546.359375 275.214844 546.210938 274.136719 C 546.0625 273.058594 546.398438 272.875 546.65625 272.613281 C 546.917969 272.351562 546.136719 272.238281 545.875 271.3125 C 545.617188 270.386719 545.839844 269.679688 546.289062 269.394531 C 546.789062 269.070312 546.5625 268.855469 546.289062 268.464844 C 545.617188 267.511719 545.765625 266 546.730469 265.667969 C 547.59375 265.371094 547.105469 265.074219 546.992188 264.578125 C 546.859375 263.996094 547.277344 262.542969 549.320312 262.582031 C 550.453125 262.601562 553.941406 263.398438 554.792969 263.585938 C 555.652344 263.773438 558.773438 262.472656 560.332031 262.023438 C 561.894531 261.578125 563.164062 261.195312 566.183594 264.636719 C 568.6875 267.492188 573.226562 269.53125 572.5625 271.90625 C 571.890625 274.285156 567.917969 276.699219 564.792969 275.511719 " fill-opacity="1" fill-rule="nonzero"/><path fill="#f79556" d="M 566.417969 265.199219 C 566.417969 265.199219 564.1875 260.871094 561.894531 260.558594 C 559.816406 260.277344 559.601562 260.433594 558.046875 260.46875 C 556.496094 260.5 554.460938 260.585938 553.023438 260.945312 C 551.871094 261.242188 550.347656 261.804688 551.03125 263.050781 C 551.71875 264.304688 552.460938 264.394531 554.679688 264.855469 C 556.902344 265.320312 558.710938 264.460938 559.851562 264.285156 C 563.957031 263.648438 566.417969 265.199219 566.417969 265.199219 " fill-opacity="1" fill-rule="nonzero"/><path fill="#ec7d40" d="M 546.992188 272.648438 C 547.605469 272.785156 548.175781 272.988281 548.726562 273.214844 C 549.28125 273.441406 549.816406 273.695312 550.335938 273.972656 C 550.863281 274.246094 551.375 274.539062 551.878906 274.851562 C 552.382812 275.171875 552.867188 275.496094 553.382812 275.84375 C 552.75 275.882812 552.136719 275.726562 551.558594 275.539062 C 550.980469 275.347656 550.421875 275.105469 549.890625 274.824219 C 549.359375 274.542969 548.84375 274.226562 548.355469 273.875 C 547.875 273.515625 547.40625 273.125 546.992188 272.648438 " fill-opacity="1" fill-rule="nonzero"/><path fill="#ec7d40" d="M 546.953125 269.121094 C 547.679688 269.28125 548.363281 269.519531 549.027344 269.78125 C 549.699219 270.039062 550.351562 270.328125 550.988281 270.636719 C 551.625 270.949219 552.257812 271.28125 552.878906 271.628906 C 553.496094 271.988281 554.101562 272.351562 554.722656 272.757812 C 553.972656 272.738281 553.261719 272.542969 552.570312 272.324219 C 551.882812 272.097656 551.214844 271.820312 550.570312 271.503906 C 549.921875 271.191406 549.292969 270.839844 548.6875 270.449219 C 548.082031 270.054688 547.492188 269.632812 546.953125 269.121094 " fill-opacity="1" fill-rule="nonzero"/><path fill="#ec7d40" d="M 547.476562 265.777344 C 548.238281 265.890625 548.964844 266.089844 549.679688 266.304688 C 550.394531 266.523438 551.09375 266.777344 551.785156 267.042969 C 552.476562 267.316406 553.15625 267.609375 553.832031 267.921875 C 554.507812 268.238281 555.164062 268.570312 555.847656 268.921875 C 555.070312 268.964844 554.3125 268.8125 553.578125 268.636719 C 552.847656 268.449219 552.132812 268.21875 551.429688 267.941406 C 550.734375 267.667969 550.054688 267.355469 549.390625 267.003906 C 548.726562 266.644531 548.078125 266.261719 547.476562 265.777344 " fill-opacity="1" fill-rule="nonzero"/><path fill="#f79556" d="M 568.496094 268.367188 C 569.121094 267.984375 569.617188 267.941406 570.300781 268.222656 C 570.960938 268.496094 572.445312 268.796875 574.660156 269.082031 C 578.023438 269.511719 582.121094 271.078125 583.152344 273.171875 C 584.882812 276.703125 585.230469 279.433594 583.886719 281.5625 C 582.542969 283.699219 579.308594 285.34375 576.136719 285.890625 C 572.964844 286.4375 569.957031 286.15625 568.636719 285.15625 C 565.648438 282.90625 566.582031 277.753906 562.039062 275.773438 C 559.023438 274.453125 565.589844 270.128906 568.496094 268.367188 " fill-opacity="1" fill-rule="nonzero"/><path fill="#d5c7f4" d="M 448.648438 253.726562 C 448.648438 287.527344 421.238281 314.925781 387.429688 314.925781 C 353.613281 314.925781 326.203125 287.527344 326.203125 253.726562 C 326.203125 219.929688 353.613281 192.527344 387.429688 192.527344 C 421.238281 192.527344 448.648438 219.929688 448.648438 253.726562 " fill-opacity="1" fill-rule="nonzero"/><path fill="#1e1735" d="M 397.652344 210.167969 C 396.378906 209.789062 395.972656 209.0625 395.058594 208.769531 C 388.148438 206.570312 378.214844 211.007812 374.203125 213.632812 C 364.753906 219.824219 362.042969 230.925781 360.207031 238.449219 C 357.132812 251.058594 358.984375 261.242188 359.394531 263.378906 C 360.78125 270.507812 363.625 285.1875 376.703125 293.792969 C 387.570312 300.945312 399.261719 299.808594 402.855469 299.457031 C 407.175781 299.039062 413.4375 298.351562 419.683594 293.792969 C 421.734375 292.300781 427.476562 287.695312 430.097656 279.621094 C 432.898438 271 431.65625 263.421875 429.804688 257.570312 C 427.789062 251.195312 423.121094 247.511719 419.226562 237.949219 C 416.5625 231.394531 418.726562 221.917969 406.289062 213.207031 C 401.300781 209.710938 399.789062 210.800781 397.652344 210.167969 " fill-opacity="1" fill-rule="nonzero"/><path fill="#1e1735" d="M 422.570312 294.152344 C 424.347656 292.964844 425.992188 291.558594 427.464844 289.972656 C 428.949219 288.402344 430.226562 286.628906 431.328125 284.734375 C 432.417969 282.839844 433.273438 280.789062 433.878906 278.683594 C 434.503906 276.582031 434.914062 274.40625 435.113281 272.210938 C 435.304688 270.011719 435.28125 267.792969 435.050781 265.597656 C 434.820312 263.398438 434.371094 261.230469 433.785156 259.113281 C 433.632812 258.585938 433.480469 258.058594 433.3125 257.535156 L 433.054688 256.757812 C 432.96875 256.496094 432.859375 256.222656 432.761719 255.960938 C 432.367188 254.886719 431.863281 253.867188 431.335938 252.878906 C 430.242188 250.917969 428.972656 249.136719 427.765625 247.398438 C 426.542969 245.667969 425.371094 243.949219 424.320312 242.164062 C 424.046875 241.71875 423.796875 241.269531 423.539062 240.816406 L 423.160156 240.140625 L 422.804688 239.453125 C 422.5625 238.992188 422.324219 238.535156 422.109375 238.0625 L 421.769531 237.359375 L 421.601562 237.011719 C 421.550781 236.894531 421.511719 236.785156 421.460938 236.671875 C 420.695312 234.902344 420.261719 232.859375 419.746094 230.78125 C 419.488281 229.742188 419.222656 228.683594 418.902344 227.632812 C 418.761719 227.101562 418.558594 226.582031 418.378906 226.058594 C 418.210938 225.535156 417.984375 225.023438 417.773438 224.503906 C 416.902344 222.453125 415.734375 220.519531 414.339844 218.785156 C 413.59375 217.96875 412.894531 217.109375 412.050781 216.386719 L 411.441406 215.832031 C 411.242188 215.644531 411.039062 215.457031 410.820312 215.296875 L 409.519531 214.296875 C 409.089844 213.953125 408.628906 213.671875 408.167969 213.378906 L 406.796875 212.503906 C 405.863281 211.953125 404.90625 211.429688 403.886719 211.019531 C 402.871094 210.613281 401.800781 210.300781 400.707031 210.210938 C 399.609375 210.113281 398.554688 210.300781 397.5 210.109375 C 398.003906 210.285156 398.546875 210.371094 399.074219 210.429688 C 399.609375 210.488281 400.132812 210.546875 400.640625 210.660156 C 401.660156 210.871094 402.621094 211.273438 403.53125 211.773438 C 404.4375 212.28125 405.3125 212.859375 406.15625 213.476562 L 407.390625 214.449219 C 407.800781 214.773438 408.21875 215.082031 408.589844 215.453125 L 409.742188 216.5 C 409.941406 216.671875 410.117188 216.859375 410.285156 217.054688 L 410.816406 217.625 C 411.542969 218.351562 412.132812 219.191406 412.769531 219.988281 C 413.933594 221.667969 414.875 223.472656 415.570312 225.378906 C 416.277344 227.289062 416.726562 229.292969 417.15625 231.363281 C 417.578125 233.433594 417.96875 235.59375 418.824219 237.773438 C 418.878906 237.90625 418.925781 238.050781 418.980469 238.179688 L 419.152344 238.550781 L 419.488281 239.296875 C 419.707031 239.796875 419.953125 240.289062 420.199219 240.777344 L 420.566406 241.511719 L 420.957031 242.238281 C 421.214844 242.714844 421.472656 243.199219 421.753906 243.667969 C 422.851562 245.5625 424.070312 247.375 425.296875 249.125 C 426.527344 250.878906 427.738281 252.574219 428.738281 254.324219 C 429.226562 255.203125 429.6875 256.09375 430.042969 257.015625 C 430.132812 257.246094 430.226562 257.46875 430.3125 257.710938 L 430.566406 258.441406 C 430.734375 258.933594 430.894531 259.425781 431.050781 259.914062 C 431.65625 261.886719 432.121094 263.894531 432.425781 265.921875 C 432.710938 267.953125 432.828125 270.007812 432.753906 272.058594 C 432.679688 274.117188 432.417969 276.164062 431.972656 278.191406 C 431.535156 280.214844 430.890625 282.171875 430.019531 284.058594 C 429.164062 285.953125 428.082031 287.753906 426.824219 289.441406 C 426.207031 290.296875 425.527344 291.105469 424.816406 291.890625 C 424.109375 292.679688 423.351562 293.429688 422.570312 294.152344 " fill-opacity="1" fill-rule="nonzero"/><path fill="#1e1735" d="M 373.101562 215.046875 C 371.46875 215.984375 369.867188 217.058594 368.476562 218.382812 C 367.082031 219.691406 365.796875 221.148438 364.703125 222.742188 C 362.484375 225.902344 360.914062 229.480469 359.683594 233.105469 C 359.070312 234.925781 358.542969 236.761719 358.054688 238.589844 C 357.804688 239.492188 357.574219 240.4375 357.355469 241.371094 C 357.234375 241.839844 357.144531 242.3125 357.050781 242.785156 L 356.769531 244.203125 C 356.117188 248 355.792969 251.863281 355.875 255.71875 C 355.921875 257.652344 356.050781 259.578125 356.28125 261.5 C 356.402344 262.460938 356.550781 263.417969 356.730469 264.375 L 356.867188 265.089844 L 357.011719 265.785156 C 357.105469 266.246094 357.207031 266.714844 357.308594 267.179688 C 358.121094 270.90625 359.191406 274.632812 360.738281 278.175781 C 362.273438 281.714844 364.273438 285.070312 366.777344 288.003906 C 369.285156 290.921875 372.265625 293.421875 375.601562 295.210938 C 372.636719 292.859375 370.035156 290.148438 367.949219 287.097656 C 365.84375 284.058594 364.191406 280.746094 362.941406 277.292969 C 362.304688 275.566406 361.777344 273.804688 361.304688 272.023438 C 360.847656 270.234375 360.449219 268.433594 360.109375 266.605469 L 359.851562 265.230469 L 359.722656 264.535156 L 359.605469 263.863281 C 359.453125 262.96875 359.332031 262.0625 359.238281 261.148438 C 359.03125 259.328125 358.921875 257.496094 358.890625 255.660156 C 358.859375 254.738281 358.871094 253.820312 358.882812 252.902344 C 358.894531 252.441406 358.917969 251.984375 358.933594 251.523438 C 358.945312 251.066406 358.980469 250.605469 359.011719 250.152344 C 359.101562 248.308594 359.339844 246.488281 359.585938 244.664062 L 359.8125 243.300781 C 359.886719 242.847656 359.953125 242.394531 360.054688 241.945312 C 360.246094 241.046875 360.414062 240.144531 360.625 239.222656 C 361.039062 237.394531 361.457031 235.582031 361.9375 233.792969 C 362.914062 230.230469 364.148438 226.738281 365.953125 223.523438 C 366.816406 221.886719 367.90625 220.394531 369.078125 218.957031 L 369.996094 217.90625 C 370.316406 217.5625 370.65625 217.25 370.988281 216.917969 L 371.488281 216.421875 C 371.664062 216.265625 371.84375 216.121094 372.023438 215.964844 L 373.101562 215.046875 " fill-opacity="1" fill-rule="nonzero"/><path fill="#ffffff" d="M 434.214844 293.6875 C 432.746094 293.03125 431.464844 292.707031 430.761719 292.558594 C 418.761719 288.261719 407.320312 280.140625 394.941406 278.988281 C 382.621094 277.832031 377.667969 281.605469 369.339844 282.09375 C 361.84375 282.535156 356.449219 282.316406 354.371094 283.273438 C 351.785156 283.875 347.007812 286.386719 342.972656 295.097656 C 342.875 295.308594 342.773438 295.53125 342.671875 295.761719 C 353.851562 307.78125 369.804688 315.304688 387.523438 315.304688 C 406.230469 315.304688 422.980469 306.914062 434.214844 293.6875 " fill-opacity="1" fill-rule="nonzero"/><path fill="#ec7d40" d="M 409.199219 234.367188 C 406.996094 248.34375 406.441406 251.234375 406.089844 260.644531 C 405.601562 273.789062 406.304688 277.023438 405.773438 281.753906 C 405.21875 286.667969 399.558594 289.796875 392.222656 289.105469 C 387.109375 288.621094 382.523438 285.824219 382.410156 281.449219 C 382.222656 274.273438 381.519531 265.984375 379.804688 257.574219 C 377.894531 248.25 377.230469 242.15625 380.113281 237.605469 C 385.578125 228.992188 410.167969 228.25 409.199219 234.367188 " fill-opacity="1" fill-rule="nonzero"/><path fill="#f79556" d="M 370.554688 226.453125 C 368.304688 232.066406 368.851562 235.363281 369.367188 237.6875 C 369.609375 238.769531 370.117188 240.394531 369.96875 242.753906 C 369.890625 244.117188 369.628906 245.050781 369.476562 245.699219 C 368.710938 248.980469 368.890625 251.96875 369.320312 253.984375 C 370.175781 257.980469 375.414062 270.199219 379.457031 272.546875 C 381.117188 273.515625 382.71875 273.742188 384.015625 273.824219 C 386.992188 274.003906 389.445312 273.253906 390.949219 272.660156 C 400.355469 268.949219 404.429688 258.773438 404.914062 257.515625 C 405.78125 255.261719 406.128906 253.492188 406.4375 251.886719 C 407.84375 244.617188 413.050781 236.355469 407.429688 226.003906 C 405.792969 222.992188 396.546875 211.414062 379.558594 217.457031 C 375.5625 218.878906 372.308594 222.085938 370.554688 226.453125 " fill-opacity="1" fill-rule="nonzero"/><path fill="#1e1735" d="M 396.257812 214.226562 C 396.257812 214.226562 395.996094 214.285156 395.746094 214.390625 C 394.128906 215.066406 392.460938 217.882812 391.808594 221.5 C 391.488281 223.285156 391.445312 224.605469 391.609375 226.308594 C 392.355469 234.390625 402.164062 235.347656 404.664062 243.238281 C 406.765625 249.894531 409.355469 246.527344 410.28125 243.960938 C 414.277344 232.890625 415.917969 224.117188 400.558594 214.972656 C 399.589844 214.394531 397.410156 213.964844 396.257812 214.226562 " fill-opacity="1" fill-rule="nonzero"/><path fill="#1e1735" d="M 393.039062 213.058594 C 391.414062 212.359375 381.292969 208.800781 370.945312 219.765625 C 365.160156 225.898438 365.886719 234.671875 366.113281 237.996094 C 366.285156 240.59375 368.015625 242.222656 368.316406 242.246094 C 368.863281 242.273438 365.128906 232.730469 384.65625 227.109375 C 390.199219 225.519531 392.167969 221.796875 392.613281 221.347656 C 394.140625 219.800781 396.289062 216.675781 395.199219 214.636719 C 394.746094 213.796875 393.914062 213.441406 393.039062 213.058594 " fill-opacity="1" fill-rule="nonzero"/><path fill="#f79556" d="M 404.734375 242.390625 C 405.207031 242.019531 407.390625 240.316406 409.15625 241.105469 C 410.847656 241.863281 411.78125 243.851562 411.953125 245.421875 C 412.308594 248.703125 410.824219 253.699219 407.828125 255.933594 C 407.222656 256.382812 406.039062 257.242188 404.664062 256.988281 C 403.363281 256.742188 402.59375 255.644531 402.304688 255.234375 C 400.007812 251.976562 400.925781 245.363281 404.734375 242.390625 " fill-opacity="1" fill-rule="nonzero"/><path fill="#d65b5b" d="M 388.171875 263.265625 C 388.3125 263.070312 388.195312 262.796875 387.957031 262.761719 C 386.941406 262.605469 384.464844 262.289062 381.617188 262.324219 C 379.664062 262.351562 377.8125 262.695312 377.039062 262.851562 C 376.835938 262.898438 376.730469 263.117188 376.816406 263.304688 C 377.265625 264.28125 378.785156 266.839844 382.269531 266.757812 C 385.394531 266.691406 387.453125 264.261719 388.171875 263.265625 " fill-opacity="1" fill-rule="nonzero"/><path fill="#1e1735" d="M 376.574219 240.777344 C 376.382812 240.1875 376.050781 239.683594 375.65625 239.246094 C 375.265625 238.796875 374.796875 238.417969 374.285156 238.113281 C 373.25 237.480469 371.96875 237.394531 370.789062 237.441406 C 370.492188 237.453125 370.195312 237.460938 369.90625 237.507812 L 369.464844 237.570312 C 369.3125 237.597656 369.152344 237.640625 369.003906 237.675781 C 368.394531 237.863281 367.859375 238.171875 367.390625 238.523438 C 366.46875 239.242188 365.808594 240.148438 365.144531 240.960938 L 365.269531 241.117188 C 365.75 240.820312 366.160156 240.472656 366.59375 240.171875 C 367.027344 239.871094 367.472656 239.597656 367.929688 239.394531 C 368.375 239.183594 368.839844 239.042969 369.285156 239.007812 L 369.613281 238.992188 L 369.980469 239.003906 C 370.222656 239.003906 370.464844 239.046875 370.707031 239.070312 C 370.945312 239.097656 371.179688 239.171875 371.410156 239.230469 C 371.636719 239.3125 371.867188 239.375 372.085938 239.480469 C 372.527344 239.652344 372.960938 239.832031 373.421875 239.96875 L 374.847656 240.433594 C 375.339844 240.597656 375.847656 240.765625 376.429688 240.921875 L 376.574219 240.777344 " fill-opacity="1" fill-rule="nonzero"/><path fill="#1e1735" d="M 399.285156 238.710938 C 398.246094 237.832031 397.015625 237.167969 395.699219 236.667969 C 394.378906 236.183594 392.925781 235.960938 391.457031 236.027344 C 391.089844 236.035156 390.726562 236.085938 390.347656 236.101562 C 389.980469 236.152344 389.613281 236.210938 389.238281 236.273438 C 388.496094 236.429688 387.792969 236.738281 387.183594 237.175781 C 385.972656 238.054688 385 239.28125 384.699219 240.789062 L 384.902344 240.957031 C 386.300781 240.421875 387.390625 239.90625 388.488281 239.476562 C 389.035156 239.261719 389.546875 239.019531 390.066406 238.757812 C 390.332031 238.636719 390.601562 238.503906 390.871094 238.390625 C 391.152344 238.296875 391.433594 238.1875 391.726562 238.125 C 392.308594 238 392.910156 237.898438 393.523438 237.894531 C 394.136719 237.855469 394.765625 237.878906 395.394531 237.957031 C 396.660156 238.074219 397.917969 238.4375 399.144531 238.9375 L 399.285156 238.710938 " fill-opacity="1" fill-rule="nonzero"/><path fill="#e6e6e6" d="M 394.183594 245.226562 C 394.144531 245.574219 392.992188 246.507812 389.855469 246.175781 C 388.464844 246.023438 387.105469 245.527344 387.183594 244.828125 C 387.253906 244.167969 388.277344 243.039062 389.492188 242.964844 C 391.621094 242.84375 394.261719 244.53125 394.183594 245.226562 " fill-opacity="1" fill-rule="nonzero"/><path fill="#1e1735" d="M 391.84375 244.183594 C 391.242188 242.292969 387.910156 242.707031 388.398438 245.246094 C 388.886719 247.785156 392.808594 247.222656 391.84375 244.183594 " fill-opacity="1" fill-rule="nonzero"/><path fill="#1e1735" d="M 386.8125 245.324219 C 387.207031 244.988281 387.582031 244.71875 387.964844 244.574219 C 388.34375 244.421875 388.710938 244.378906 389.089844 244.382812 C 389.851562 244.398438 390.679688 244.609375 391.550781 244.820312 C 392.421875 245.039062 393.339844 245.277344 394.339844 245.386719 C 394.839844 245.433594 395.371094 245.457031 395.910156 245.355469 C 396.175781 245.304688 396.457031 245.214844 396.699219 245.074219 C 396.949219 244.921875 397.148438 244.707031 397.242188 244.46875 C 396.988281 244.558594 396.769531 244.582031 396.558594 244.5625 C 396.34375 244.527344 396.148438 244.492188 395.9375 244.417969 C 395.527344 244.285156 395.121094 244.109375 394.703125 243.929688 C 393.863281 243.578125 392.980469 243.210938 392.011719 242.972656 C 391.046875 242.746094 389.960938 242.589844 388.835938 242.910156 C 388.285156 243.078125 387.746094 243.398438 387.382812 243.84375 C 387.023438 244.289062 386.835938 244.8125 386.8125 245.324219 " fill-opacity="1" fill-rule="nonzero"/><path fill="#e6e6e6" d="M 375.710938 245.644531 C 375.679688 245.953125 374.78125 246.804688 372.386719 246.550781 C 371.320312 246.433594 370.859375 245.855469 370.925781 245.226562 C 370.992188 244.628906 371.21875 243.761719 372.152344 243.679688 C 373.785156 243.539062 375.78125 245.011719 375.710938 245.644531 " fill-opacity="1" fill-rule="nonzero"/><path fill="#1e1735" d="M 373.777344 244.839844 C 373.269531 243.246094 370.460938 243.589844 370.875 245.726562 C 371.285156 247.871094 374.589844 247.394531 373.777344 244.839844 " fill-opacity="1" fill-rule="nonzero"/><path fill="#1e1735" d="M 369.320312 245.367188 C 369.691406 245.1875 370.007812 245.007812 370.324219 244.898438 C 370.636719 244.785156 370.925781 244.726562 371.195312 244.722656 C 371.714844 244.714844 372.226562 244.890625 372.835938 245.125 C 373.445312 245.367188 374.109375 245.667969 374.898438 245.847656 C 375.292969 245.921875 375.730469 245.980469 376.171875 245.894531 C 376.617188 245.8125 377.039062 245.554688 377.222656 245.191406 C 376.816406 245.25 376.492188 245.179688 376.210938 245.0625 C 375.933594 244.945312 375.664062 244.773438 375.378906 244.597656 C 374.816406 244.246094 374.207031 243.839844 373.460938 243.546875 C 373.085938 243.402344 372.675781 243.28125 372.226562 243.242188 C 371.78125 243.203125 371.292969 243.253906 370.855469 243.4375 C 370.417969 243.613281 370.054688 243.910156 369.804688 244.25 C 369.550781 244.589844 369.398438 244.96875 369.320312 245.367188 " fill-opacity="1" fill-rule="nonzero"/><path fill="#e30613" d="M 421.59375 434.910156 L 353.257812 434.910156 C 345.546875 434.910156 339.238281 428.605469 339.238281 420.898438 L 339.238281 418.984375 C 339.238281 411.277344 345.546875 404.972656 353.257812 404.972656 L 421.59375 404.972656 C 429.304688 404.972656 435.613281 411.277344 435.613281 418.984375 L 435.613281 420.898438 C 435.613281 428.605469 429.304688 434.910156 421.59375 434.910156 " fill-opacity="1" fill-rule="nonzero"/><path fill="#1e1735" d="M 449.414062 392.863281 L 325.4375 392.863281 C 318.351562 392.863281 312.554688 387.070312 312.554688 379.992188 L 312.554688 375.808594 C 312.554688 368.722656 318.351562 362.929688 325.4375 362.929688 L 449.414062 362.929688 C 456.5 362.929688 462.296875 368.722656 462.296875 375.808594 L 462.296875 379.992188 C 462.296875 387.070312 456.5 392.863281 449.414062 392.863281 " fill-opacity="1" fill-rule="nonzero"/><path fill="#1e1735" d="M 449.414062 356.417969 L 325.4375 356.417969 C 318.351562 356.417969 312.554688 350.625 312.554688 343.539062 L 312.554688 339.359375 C 312.554688 332.277344 318.351562 326.480469 325.4375 326.480469 L 449.414062 326.480469 C 456.5 326.480469 462.296875 332.277344 462.296875 339.359375 L 462.296875 343.539062 C 462.296875 350.625 456.5 356.417969 449.414062 356.417969 " fill-opacity="1" fill-rule="nonzero"/><path fill="#ffffff" d="M 354.628906 377.953125 C 354.628906 379.871094 356.183594 381.429688 358.105469 381.429688 C 360.027344 381.429688 361.585938 379.871094 361.585938 377.953125 C 361.585938 376.03125 360.027344 374.472656 358.105469 374.472656 C 356.183594 374.472656 354.628906 376.03125 354.628906 377.953125 " fill-opacity="1" fill-rule="nonzero"/><path fill="#ffffff" d="M 340.203125 377.953125 C 340.203125 379.871094 341.761719 381.429688 343.679688 381.429688 C 345.601562 381.429688 347.15625 379.871094 347.15625 377.953125 C 347.15625 376.03125 345.601562 374.472656 343.679688 374.472656 C 341.761719 374.472656 340.203125 376.03125 340.203125 377.953125 " fill-opacity="1" fill-rule="nonzero"/><path fill="#ffffff" d="M 325.777344 377.953125 C 325.777344 379.871094 327.332031 381.429688 329.257812 381.429688 C 331.175781 381.429688 332.734375 379.871094 332.734375 377.953125 C 332.734375 376.03125 331.175781 374.472656 329.257812 374.472656 C 327.332031 374.472656 325.777344 376.03125 325.777344 377.953125 " fill-opacity="1" fill-rule="nonzero"/><path fill="#ffffff" d="M 383.589844 377.953125 C 383.589844 379.871094 385.148438 381.429688 387.070312 381.429688 C 388.988281 381.429688 390.546875 379.871094 390.546875 377.953125 C 390.546875 376.03125 388.988281 374.472656 387.070312 374.472656 C 385.148438 374.472656 383.589844 376.03125 383.589844 377.953125 " fill-opacity="1" fill-rule="nonzero"/><path fill="#ffffff" d="M 369.164062 377.953125 C 369.164062 379.871094 370.722656 381.429688 372.640625 381.429688 C 374.566406 381.429688 376.125 379.871094 376.125 377.953125 C 376.125 376.03125 374.566406 374.472656 372.640625 374.472656 C 370.722656 374.472656 369.164062 376.03125 369.164062 377.953125 " fill-opacity="1" fill-rule="nonzero"/><path fill="#ffffff" d="M 399.875 344.828125 L 329.257812 344.828125 C 327.339844 344.828125 325.777344 343.265625 325.777344 341.355469 C 325.777344 339.4375 327.339844 337.878906 329.257812 337.878906 L 399.875 337.878906 C 401.792969 337.878906 403.351562 339.4375 403.351562 341.355469 C 403.351562 343.265625 401.792969 344.828125 399.875 344.828125 " fill-opacity="1" fill-rule="nonzero"/><path fill="#ffffff" d="M 442.40625 344.828125 L 413.519531 344.828125 C 411.609375 344.828125 410.042969 343.265625 410.042969 341.355469 C 410.042969 339.4375 411.609375 337.878906 413.519531 337.878906 L 442.40625 337.878906 C 444.324219 337.878906 445.890625 339.4375 445.890625 341.355469 C 445.890625 343.265625 444.324219 344.828125 442.40625 344.828125 " fill-opacity="1" fill-rule="nonzero"/><path fill="#ffffff" d="M 340.253906 129.792969 C 339.996094 122.398438 334.546875 116.152344 327.269531 114.871094 C 324.476562 114.117188 295.484375 106.4375 268.382812 106.898438 C 239.429688 107.390625 210.597656 116.050781 207.835938 116.902344 C 200.601562 118.425781 195.371094 124.851562 195.367188 132.253906 C 195.351562 155.664062 195.691406 212.011719 199.050781 229.6875 C 204.402344 257.839844 257.9375 285.835938 268.617188 291.160156 C 269.125 291.417969 269.691406 291.546875 270.261719 291.535156 L 270.808594 291.527344 C 271.382812 291.519531 271.941406 291.367188 272.441406 291.097656 C 282.933594 285.414062 335.484375 255.613281 339.878906 227.296875 C 342.640625 209.515625 341.058594 153.1875 340.253906 129.792969 " fill-opacity="1" fill-rule="nonzero"/><path fill="#1e1735" d="M 249.121094 157.289062 C 249.121094 146.664062 257.769531 138.019531 268.40625 138.019531 C 279.035156 138.019531 287.679688 146.664062 287.679688 157.289062 L 287.679688 169.34375 L 249.121094 169.34375 Z M 305.667969 183.144531 L 305.667969 181.257812 C 305.667969 175.421875 301.460938 170.574219 295.917969 169.554688 L 295.917969 157.289062 C 295.917969 142.125 283.578125 129.78125 268.40625 129.78125 C 253.226562 129.78125 240.886719 142.125 240.886719 157.289062 L 240.886719 169.554688 C 235.34375 170.574219 231.140625 175.421875 231.140625 181.257812 L 231.140625 183.144531 L 305.667969 183.144531 " fill-opacity="1" fill-rule="nonzero"/><path fill="#1e1735" d="M 231.140625 231.851562 L 231.140625 231.933594 C 231.140625 238.507812 236.472656 243.84375 243.054688 243.84375 L 293.75 243.84375 C 300.332031 243.84375 305.667969 238.507812 305.667969 231.933594 L 305.667969 231.851562 L 231.140625 231.851562 " fill-opacity="1" fill-rule="nonzero"/><path fill="#1e1735" d="M 305.667969 229.066406 L 305.667969 185.929688 L 231.140625 185.929688 L 231.140625 229.066406 L 305.667969 229.066406 " fill-opacity="1" fill-rule="nonzero"/><path fill="#ffffff" d="M 268.40625 223.171875 C 267.253906 223.175781 266.15625 222.71875 265.347656 221.90625 L 242.257812 198.832031 C 240.570312 197.140625 240.570312 194.40625 242.257812 192.71875 C 243.949219 191.03125 246.683594 191.03125 248.371094 192.71875 L 268.40625 212.738281 L 288.433594 192.71875 C 290.121094 191.03125 292.855469 191.03125 294.542969 192.71875 C 296.234375 194.40625 296.234375 197.140625 294.542969 198.832031 L 271.457031 221.90625 C 270.648438 222.71875 269.546875 223.171875 268.40625 223.171875 " fill-opacity="1" fill-rule="nonzero"/><path fill="#e30613" d="M 330.59375 225.855469 C 329.160156 235.128906 319.242188 247.355469 302.667969 260.28125 C 290.03125 270.140625 276.640625 278.007812 270.363281 281.519531 C 263.976562 278.222656 250.324219 270.8125 237.359375 261.390625 C 220.359375 249.03125 210.03125 237.152344 208.28125 227.933594 C 206.046875 216.210938 204.734375 180.441406 204.757812 132.261719 C 204.761719 129.296875 206.875 126.703125 209.777344 126.085938 L 210.195312 126.003906 L 210.601562 125.875 C 211.8125 125.503906 240.515625 116.761719 268.546875 116.285156 C 269.277344 116.273438 270.015625 116.265625 270.75 116.265625 C 295.820312 116.265625 321.914062 123.148438 324.808594 123.933594 L 325.21875 124.046875 L 325.636719 124.121094 C 328.566406 124.636719 330.761719 127.15625 330.863281 130.121094 C 332.527344 178.273438 332.429688 214.0625 330.59375 225.855469 Z M 340.253906 129.792969 C 339.996094 122.398438 334.546875 116.152344 327.269531 114.871094 C 324.476562 114.117188 295.484375 106.4375 268.382812 106.898438 C 239.429688 107.390625 210.597656 116.050781 207.835938 116.902344 C 200.601562 118.425781 195.371094 124.851562 195.367188 132.253906 C 195.351562 155.664062 195.691406 212.011719 199.050781 229.6875 C 204.402344 257.839844 257.9375 285.835938 268.617188 291.160156 C 269.125 291.417969 269.691406 291.546875 270.261719 291.535156 L 270.808594 291.527344 C 271.382812 291.519531 271.941406 291.367188 272.441406 291.097656 C 282.933594 285.414062 335.484375 255.613281 339.878906 227.296875 C 342.640625 209.515625 341.058594 153.1875 340.253906 129.792969 " fill-opacity="1" fill-rule="nonzero"/></svg>